<svg width="35" height="35" viewBox="0 0 35 35" fill="none" xmlns="http://www.w3.org/2000/svg">
<circle cx="17.1564" cy="17.1564" r="17.1564" fill="#FFF8DE"/>
<path fill-rule="evenodd" clip-rule="evenodd" d="M12.4255 11.8173C12.9176 11.7507 13.5201 11.7391 14.2448 11.7377C14.2879 11.1773 14.5409 10.6539 14.9533 10.272C15.3656 9.89021 15.907 9.67813 16.469 9.67822H17.8415C18.4033 9.67829 18.9443 9.89035 19.3565 10.272C19.7687 10.6537 20.0217 11.1769 20.065 11.737C20.7903 11.7391 21.3929 11.7507 21.8849 11.8173C22.5025 11.8996 23.0227 12.0781 23.4358 12.4905C23.849 12.9036 24.026 13.4238 24.1098 14.0414C24.1894 14.6364 24.1894 15.3934 24.1894 16.3315V19.152C24.1894 20.0901 24.1894 20.8471 24.1098 21.442C24.026 22.0597 23.849 22.5798 23.4358 22.993C23.0227 23.4061 22.5025 23.5832 21.8849 23.6669C21.2899 23.7465 20.533 23.7465 19.5949 23.7465H14.7156C13.7775 23.7465 13.0205 23.7465 12.4255 23.6669C11.8079 23.5832 11.2877 23.4061 10.8746 22.993C10.4615 22.5798 10.2844 22.0597 10.2014 21.442C10.1211 20.8471 10.1211 20.0901 10.1211 19.152V16.3315C10.1211 15.3934 10.1211 14.6364 10.2014 14.0414C10.2837 13.4238 10.4622 12.9036 10.8746 12.4905C11.2877 12.0774 11.8079 11.9003 12.4255 11.8173ZM19.0301 11.737H15.2804C15.3216 11.4512 15.4645 11.1898 15.6828 11.0007C15.9011 10.8117 16.1802 10.7076 16.469 10.7076H17.8415C18.1303 10.7076 18.4094 10.8117 18.6277 11.0007C18.846 11.1898 18.9888 11.4512 19.0301 11.737ZM12.5628 22.6464C12.0591 22.5785 11.7928 22.4543 11.6027 22.2649C11.4126 22.0748 11.2891 21.8085 11.2212 21.3041C11.1519 20.786 11.1505 20.099 11.1505 19.1143V16.8016C12.2272 17.2531 13.1132 17.6182 13.8955 17.8934V18.7711C13.8955 18.9076 13.9497 19.0385 14.0463 19.1351C14.1428 19.2316 14.2737 19.2858 14.4102 19.2858C14.5467 19.2858 14.6776 19.2316 14.7741 19.1351C14.8707 19.0385 14.9249 18.9076 14.9249 18.7711V18.2187C15.7921 18.4653 16.6942 18.5662 17.5944 18.5172C18.1826 18.4898 18.759 18.3896 19.3856 18.2187V18.7711C19.3856 18.9076 19.4398 19.0385 19.5363 19.1351C19.6328 19.2316 19.7637 19.2858 19.9003 19.2858C20.0368 19.2858 20.1677 19.2316 20.2642 19.1351C20.3607 19.0385 20.4149 18.9076 20.4149 18.7711V17.8934C21.1973 17.6175 22.0832 17.2531 23.16 16.8009V19.1143C23.16 20.099 23.1586 20.786 23.0893 21.3048C23.0213 21.8085 22.8971 22.0748 22.7077 22.2649C22.5176 22.4549 22.2514 22.5785 21.747 22.6464C21.2288 22.7157 20.5419 22.7171 19.5571 22.7171H14.7533C13.7685 22.7171 13.0809 22.7157 12.5628 22.6464ZM14.9249 17.1488C15.6002 17.3519 16.1766 17.4617 16.7641 17.4885C17.0248 17.5009 17.2856 17.5009 17.5464 17.4885C18.1338 17.4611 18.711 17.3513 19.3856 17.1488V16.3692C19.3856 16.2327 19.4398 16.1018 19.5363 16.0053C19.6328 15.9088 19.7637 15.8545 19.9003 15.8545C20.0368 15.8545 20.1677 15.9088 20.2642 16.0053C20.3607 16.1018 20.4149 16.2327 20.4149 16.3692V16.7981C21.165 16.5195 22.0489 16.1517 23.1586 15.685C23.1552 15.0516 23.1414 14.5678 23.0893 14.1787C23.0213 13.675 22.8971 13.4087 22.7077 13.2186C22.5176 13.0285 22.2514 12.905 21.747 12.8371C21.2288 12.7678 20.5419 12.7664 19.5571 12.7664H14.7533C13.7685 12.7664 13.0809 12.7678 12.5628 12.8371C12.0591 12.905 11.7928 13.0292 11.6027 13.2186C11.4126 13.4087 11.2891 13.675 11.2212 14.1794C11.169 14.5678 11.1553 15.0509 11.1519 15.685C12.2615 16.1517 13.1454 16.5195 13.8955 16.7981V16.3692C13.8955 16.2327 13.9497 16.1018 14.0463 16.0053C14.1428 15.9088 14.2737 15.8545 14.4102 15.8545C14.5467 15.8545 14.6776 15.9088 14.7741 16.0053C14.8707 16.1018 14.9249 16.2327 14.9249 16.3692V17.1488Z" fill="#0066FF"/>
</svg>
