<svg width="35" height="35" viewBox="0 0 35 35" fill="none" xmlns="http://www.w3.org/2000/svg">
<circle cx="17.1575" cy="17.1575" r="17.1575" fill="#EDFAE9"/>
<path d="M17.248 8.17041C15.4525 8.17041 13.6974 8.70283 12.2045 9.70034C10.7116 10.6978 9.54805 12.1156 8.86095 13.7744C8.17386 15.4332 7.99408 17.2585 8.34436 19.0195C8.69464 20.7805 9.55924 22.398 10.8288 23.6676C12.0984 24.9372 13.716 25.8018 15.4769 26.1521C17.2379 26.5023 19.0632 26.3226 20.722 25.6355C22.3808 24.9484 23.7986 23.7848 24.7961 22.2919C25.7936 20.7991 26.326 19.0439 26.326 17.2485C26.326 14.8408 25.3696 12.5318 23.6671 10.8293C21.9646 9.12684 19.6556 8.17041 17.248 8.17041ZM17.248 25.3158C15.6524 25.3158 14.0927 24.8427 12.766 23.9562C11.4393 23.0698 10.4053 21.8098 9.79471 20.3357C9.18411 18.8616 9.02435 17.2395 9.33563 15.6746C9.64691 14.1097 10.4152 12.6722 11.5435 11.544C12.6717 10.4157 14.1092 9.64739 15.6741 9.33611C17.239 9.02483 18.8611 9.18459 20.3352 9.79519C21.8093 10.4058 23.0693 11.4398 23.9557 12.7665C24.8422 14.0931 25.3153 15.6529 25.3153 17.2485C25.3121 19.3871 24.4611 21.4372 22.9489 22.9494C21.4367 24.4616 19.3866 25.3126 17.248 25.3158Z" fill="#20B108"/>
<path d="M15.9826 18.8157L14.0459 16.879L13.1865 17.7323L15.9826 20.5223L21.853 14.6519L20.9997 13.7925L15.9826 18.8157Z" fill="#20B108"/>
</svg>
