<svg width="597" height="444" viewBox="0 0 597 444" fill="none" xmlns="http://www.w3.org/2000/svg">
<g clip-path="url(#clip0_528_232)">
<path d="M537.183 409.965H497.634V410.263H537.183V409.965Z" fill="#ECECEC"/>
<path d="M395.476 413.204H385.097V413.502H395.476V413.204Z" fill="#ECECEC"/>
<path d="M496.44 398.882H473.524V399.18H496.44V398.882Z" fill="#ECECEC"/>
<path d="M114.209 400.89H62.6367V401.188H114.209V400.89Z" fill="#ECECEC"/>
<path d="M132.402 400.89H124.842V401.188H132.402V400.89Z" fill="#ECECEC"/>
<path d="M268.827 405.926H156.978V406.224H268.827V405.926Z" fill="#ECECEC"/>
<path d="M284.65 337.536H54.1077C52.3009 337.533 50.5689 336.815 49.2913 335.538C48.0138 334.261 47.2948 332.53 47.292 330.724V6.79789C47.2985 4.99454 48.0191 3.26712 49.2963 1.99327C50.5734 0.719422 52.3033 0.00277127 54.1077 0H284.667C286.473 0.00371221 288.204 0.722703 289.481 1.99948C290.758 3.27626 291.476 5.00675 291.479 6.81193V330.738C291.473 332.544 290.75 334.273 289.47 335.548C288.19 336.822 286.456 337.537 284.65 337.536ZM54.1077 0.298309C52.3798 0.300167 50.7232 0.987022 49.5014 2.20816C48.2796 3.4293 47.5923 5.08498 47.5905 6.81193V330.738C47.5932 332.465 48.2808 334.12 49.5024 335.341C50.724 336.562 52.38 337.249 54.1077 337.252H284.667C286.395 337.25 288.052 336.563 289.273 335.342C290.495 334.121 291.182 332.465 291.184 330.738V6.81193C291.183 5.08469 290.496 3.42847 289.274 2.20713C288.052 0.985792 286.395 0.299239 284.667 0.298309H54.1077Z" fill="#ECECEC"/>
<path d="M542.896 337.536H312.337C310.53 337.533 308.799 336.814 307.523 335.537C306.246 334.26 305.527 332.53 305.524 330.724V6.79824C305.527 4.99246 306.246 3.26145 307.524 1.98457C308.801 0.707688 310.533 -0.0108873 312.34 -0.0136719H542.896C544.703 -0.0108873 546.435 0.707688 547.712 1.98457C548.99 3.26145 549.709 4.99246 549.712 6.79824V330.724C549.709 332.53 548.99 334.261 547.712 335.538C546.435 336.815 544.703 337.534 542.896 337.536ZM312.337 0.298667C310.609 0.300525 308.952 0.98738 307.73 2.20852C306.508 3.42966 305.821 5.08534 305.819 6.81229V330.738C305.822 332.465 306.51 334.12 307.731 335.341C308.953 336.562 310.609 337.249 312.337 337.252H542.896C544.624 337.249 546.28 336.562 547.501 335.341C548.723 334.12 549.41 332.465 549.413 330.738V6.81229C549.411 5.08534 548.724 3.42966 547.502 2.20852C546.281 0.98738 544.624 0.300525 542.896 0.298667H312.337Z" fill="#ECECEC"/>
<path d="M597 390.758H0V391.056H597V390.758Z" fill="#ECECEC"/>
<path d="M417.988 383.826H531.628V232.693H417.988V383.826Z" fill="#F5F5F5"/>
<path d="M396.309 383.826H417.988V232.693H396.309V383.826Z" fill="#E7E7E7"/>
<path d="M425.365 280.612H523.671V243.91H425.365V280.612Z" fill="#FAFAFA"/>
<path d="M487.335 243.91L486.907 248.802C486.837 249.581 486.479 250.305 485.903 250.833C485.327 251.361 484.574 251.654 483.792 251.656H465.241C464.459 251.656 463.705 251.363 463.128 250.835C462.552 250.306 462.194 249.581 462.127 248.802L461.698 243.91H487.335Z" fill="#ECECEC"/>
<path d="M425.365 321.325H523.671V284.623H425.365V321.325Z" fill="#FAFAFA"/>
<path d="M487.335 284.62L486.907 289.512C486.837 290.291 486.479 291.015 485.903 291.543C485.327 292.071 484.574 292.364 483.792 292.366H465.241C464.459 292.366 463.705 292.073 463.128 291.545C462.552 291.016 462.194 290.291 462.127 289.512L461.698 284.62H487.335Z" fill="#ECECEC"/>
<path d="M425.365 362.036H523.671V325.334H425.365V362.036Z" fill="#FAFAFA"/>
<path d="M487.335 325.33L486.907 330.222C486.837 331.001 486.479 331.725 485.903 332.253C485.327 332.781 484.574 333.074 483.792 333.076H465.241C464.459 333.076 463.705 332.783 463.128 332.255C462.552 331.726 462.194 331.001 462.127 330.222L461.698 325.33H487.335Z" fill="#ECECEC"/>
<path d="M425.362 391.371H522.474L523.668 383.815H425.362V391.371Z" fill="#E7E7E7"/>
<path d="M405.066 391.371H425.362V383.815H403.872L405.066 391.371Z" fill="#E1E1E1"/>
<path d="M471.01 232.859H509.815L505.51 183.677H466.705L471.01 232.859Z" fill="#FAFAFA"/>
<path d="M471.011 232.859H469.16L464.852 183.677H466.706L471.011 232.859Z" fill="#ECECEC"/>
<path d="M474.529 227.846H505.422L501.995 188.688H471.102L474.529 227.846Z" fill="#F0F0F0"/>
<path d="M476.79 224.622H502.595L499.734 191.913H473.925L476.79 224.622Z" fill="#E7E7E7"/>
<path d="M460.108 232.858L462.773 202.417H424.144L421.479 232.858H460.108Z" fill="#F0F0F0"/>
<path d="M460.107 232.858L462.773 202.417H464.851L462.186 232.858H460.107Z" fill="#E1E1E1"/>
<path d="M456.441 229.756L458.562 205.52H427.809L425.688 229.756H456.441Z" fill="#ECECEC"/>
<path d="M454.085 227.763L455.855 207.517H430.165L428.396 227.763H454.085Z" fill="#F5F5F5"/>
<path d="M370.911 370.911C370.911 378.983 369.644 384.198 367.509 387.546C366.692 388.774 365.58 389.778 364.275 390.465C362.969 391.153 361.512 391.502 360.036 391.48H348.364C346.889 391.502 345.432 391.153 344.126 390.465C342.821 389.778 341.709 388.774 340.892 387.546C338.757 384.198 337.493 378.979 337.493 370.911C337.493 359.21 342.595 349.854 344.263 342.361C344.864 339.669 342.859 331.415 342.859 331.415H365.546C365.546 331.415 363.544 339.669 364.141 342.361C365.806 349.843 370.911 359.221 370.911 370.911Z" fill="#ECECEC"/>
<path d="M409.543 323.558C409.543 313.38 393.605 317.616 389.591 301.855C388.067 295.889 401.028 282.363 401.028 282.363H360.619C360.619 282.363 373.579 295.882 372.055 301.855C368.038 317.616 352.104 313.398 352.104 323.558C352.104 334.746 374.577 358.049 375.669 384.272C375.763 386.616 371.455 391.477 371.455 391.477H390.22C390.22 391.477 385.897 386.616 386.006 384.272C387.063 358.049 409.543 334.746 409.543 323.558Z" fill="#F5F5F5"/>
<path d="M397.331 349.96C399.676 345.022 394.82 328.232 394.82 328.232H412.331C412.331 328.232 407.475 345.022 409.824 349.96C411.482 353.445 415.256 355.67 415.256 359.786V384.574C415.256 390.993 409.989 391.474 403.577 391.474C397.166 391.474 391.898 390.993 391.898 384.574V359.786C391.905 355.67 395.67 353.445 397.331 349.96Z" fill="#F0F0F0"/>
<path d="M197.191 203.554C187.131 199.203 181.39 190.011 184.399 183.069C187.408 176.128 198.037 174.025 208.101 178.381C218.165 182.736 223.902 191.924 220.897 198.866C217.891 205.807 207.255 207.91 197.191 203.554ZM205.201 185.07C200.485 183.031 195.506 184.017 194.094 187.267C192.682 190.517 195.376 194.826 200.091 196.865C204.807 198.904 209.79 197.918 211.198 194.668C212.606 191.419 209.916 187.109 205.201 185.07Z" fill="#E7E7E7"/>
<path d="M209.027 185.456L204.248 183.385L233.14 116.635C233.276 116.321 233.472 116.037 233.717 115.799C233.963 115.561 234.253 115.374 234.571 115.248C234.889 115.122 235.228 115.06 235.57 115.066C235.912 115.071 236.25 115.144 236.564 115.28C236.878 115.416 237.162 115.612 237.4 115.857C237.638 116.102 237.825 116.392 237.951 116.71C238.077 117.028 238.139 117.367 238.133 117.709C238.128 118.051 238.055 118.388 237.919 118.702L209.027 185.456Z" fill="#E7E7E7"/>
<path d="M240.135 125.155L230.96 121.151L233.032 116.371L242.204 120.379L240.135 125.155Z" fill="#E7E7E7"/>
<path d="M235.613 130.5L229.043 127.647L231.115 122.867L237.681 125.72L235.613 130.5Z" fill="#E7E7E7"/>
<path d="M228.423 131.97L226.353 136.749L233.719 139.937L235.789 135.157L228.423 131.97Z" fill="#E7E7E7"/>
<path d="M210.888 178.328L208.262 177.191C207.95 177.057 207.669 176.862 207.432 176.619C207.196 176.376 207.01 176.088 206.885 175.773C206.761 175.458 206.699 175.121 206.704 174.782C206.71 174.443 206.782 174.109 206.917 173.798V173.759C207.051 173.448 207.246 173.166 207.489 172.93C207.733 172.694 208.021 172.508 208.336 172.383C208.651 172.259 208.988 172.197 209.327 172.202C209.666 172.208 210.001 172.28 210.312 172.415L212.939 173.552C213.25 173.686 213.532 173.881 213.768 174.124C214.005 174.367 214.19 174.655 214.315 174.97C214.44 175.285 214.502 175.622 214.496 175.961C214.491 176.3 214.419 176.634 214.284 176.946V176.988C214.149 177.299 213.954 177.58 213.711 177.816C213.467 178.051 213.179 178.237 212.864 178.361C212.549 178.486 212.212 178.547 211.873 178.541C211.534 178.536 211.199 178.463 210.888 178.328Z" fill="#E7E7E7"/>
<path d="M416.074 155.383C424.045 160.689 426.099 171.653 420.657 179.823C415.214 187.993 404.294 190.316 396.323 185.006C388.352 179.696 386.294 168.736 391.758 160.566C397.222 152.396 408.1 150.073 416.074 155.383ZM401.572 177.142C405.308 179.63 410.421 178.545 412.974 174.713C415.527 170.881 414.561 165.75 410.825 163.261C407.089 160.773 401.973 161.858 399.423 165.69C396.874 169.522 397.836 174.65 401.572 177.135V177.142Z" fill="#E7E7E7"/>
<path d="M399.631 175.019L404.571 178.307L369.211 232.392C368.995 232.716 368.717 232.995 368.394 233.212C368.07 233.429 367.707 233.58 367.324 233.656C366.942 233.733 366.549 233.733 366.166 233.658C365.784 233.583 365.42 233.432 365.096 233.216C364.44 232.78 363.985 232.101 363.83 231.329C363.676 230.557 363.834 229.755 364.271 229.1L399.631 175.019Z" fill="#E7E7E7"/>
<path d="M364.517 217.311L374.917 224.292L369.724 232.079L359.306 225.085C358.587 224.602 358.089 223.855 357.921 223.007C357.753 222.158 357.927 221.278 358.407 220.558L359.969 218.213C360.208 217.855 360.515 217.547 360.873 217.307C361.231 217.068 361.633 216.901 362.055 216.817C362.478 216.734 362.913 216.734 363.335 216.819C363.758 216.904 364.159 217.071 364.517 217.311Z" fill="#E7E7E7"/>
<path d="M271.678 52.0315L266.197 66.2414C265.959 66.8562 265.487 67.3515 264.884 67.6184C264.281 67.8853 263.597 67.9019 262.982 67.6645C262.367 67.4272 261.871 66.9553 261.604 66.3528C261.337 65.7503 261.321 65.0664 261.558 64.4516L267.046 50.2417C267.896 48.0336 267.835 45.5789 266.877 43.4157C265.918 41.2525 264.141 39.5576 261.934 38.7025L256.849 36.7406C254.64 35.8914 252.183 35.9528 250.019 36.9114C247.854 37.87 246.159 39.6475 245.304 41.854L243.063 47.6552L238.425 45.8653L240.665 40.0641C241.996 36.6287 244.636 33.8612 248.005 32.3689C251.375 30.8767 255.2 30.7816 258.64 32.1046L263.725 34.0664C267.16 35.3983 269.927 38.0376 271.418 41.4055C272.909 44.7734 273.002 48.5948 271.678 52.0315Z" fill="#F0F0F0"/>
<path d="M270.81 54.2712C270.432 53.7872 269.93 53.4149 269.357 53.1938L241.655 42.5039C241.061 42.2713 240.413 42.214 239.787 42.3389C239.223 42.4484 238.695 42.6989 238.254 43.0671C237.812 43.4353 237.471 43.9092 237.262 44.4446L226.563 72.145C226.402 72.5611 226.324 73.0049 226.335 73.451C226.346 73.8972 226.444 74.3368 226.625 74.7446C226.806 75.1525 227.066 75.5207 227.39 75.828C227.714 76.1353 228.095 76.3757 228.512 76.5354L256.213 87.2253C256.63 87.3861 257.073 87.4634 257.519 87.4528C257.965 87.4421 258.405 87.3436 258.813 87.1631C259.221 86.9825 259.589 86.7234 259.897 86.4004C260.205 86.0775 260.446 85.6971 260.606 85.2811L271.299 57.5947C271.515 57.0464 271.584 56.451 271.498 55.8679C271.412 55.2848 271.175 54.7342 270.81 54.2712ZM249.777 75.6791L240.998 72.2889L245.644 64.1855C245.206 63.3057 245.044 62.3142 245.18 61.341C245.316 60.3677 245.743 59.4582 246.405 58.7317C247.067 58.0051 247.933 57.4955 248.89 57.2697C249.847 57.0439 250.85 57.1124 251.767 57.4662C252.684 57.82 253.473 58.4426 254.03 59.2524C254.587 60.0621 254.886 61.0212 254.888 62.0039C254.89 62.9866 254.595 63.9469 254.041 64.7589C253.488 65.571 252.701 66.1968 251.786 66.5544L249.777 75.6791Z" fill="#E7E7E7"/>
<path d="M82.5747 375.312H303.618V256.418H82.5747L82.5747 375.312Z" fill="#E7E7E7"/>
<path d="M285.899 390.74H299.79V380.25H285.899V390.74Z" fill="#E7E7E7"/>
<path d="M65.7016 390.74H79.5928L79.5928 247.574H65.7016L65.7016 390.74Z" fill="#E7E7E7"/>
<path d="M79.4277 247.57V390.758H86.8368V382.735H299.79V390.758H307.199V247.57H79.4277ZM86.8368 260.531H189.609V310.257H86.8368V260.531ZM299.79 369.75H197.021V260.531H299.794L299.79 369.75ZM86.8368 369.75V317.662H189.609V369.75H86.8368Z" fill="#F0F0F0"/>
<path d="M197.014 369.757H292.841V265.879H197.014V369.757Z" fill="#F5F5F5"/>
<path d="M201.358 314.707C201.358 315.587 201.62 316.448 202.109 317.18C202.598 317.911 203.294 318.482 204.108 318.819C204.922 319.155 205.817 319.243 206.681 319.071C207.545 318.899 208.338 318.475 208.96 317.852C209.583 317.23 210.007 316.436 210.178 315.573C210.35 314.709 210.261 313.815 209.923 313.001C209.586 312.188 209.015 311.494 208.282 311.005C207.549 310.517 206.688 310.256 205.807 310.257C204.627 310.258 203.495 310.727 202.661 311.561C201.827 312.396 201.358 313.527 201.358 314.707Z" fill="#FAFAFA"/>
<path d="M205.8 319.157C206.652 319.156 207.485 318.911 208.201 318.45C208.917 317.988 209.485 317.331 209.838 316.557C210.153 317.235 210.292 317.981 210.243 318.727C210.193 319.473 209.956 320.195 209.553 320.825C209.151 321.455 208.596 321.974 207.94 322.334C207.284 322.693 206.548 322.881 205.8 322.881C205.052 322.881 204.316 322.693 203.66 322.334C203.004 321.974 202.449 321.455 202.047 320.825C201.644 320.195 201.407 319.473 201.358 318.727C201.308 317.981 201.447 317.235 201.762 316.557C202.115 317.331 202.683 317.988 203.399 318.45C204.115 318.911 204.948 319.156 205.8 319.157Z" fill="#E1E1E1"/>
<path d="M255.68 369.756H232.818L221.894 265.879H244.756L255.68 369.756Z" fill="#FAFAFA"/>
<path d="M226.964 369.756H222.413L211.489 265.879H216.04L226.964 369.756Z" fill="#FAFAFA"/>
<path d="M166.445 310.204H175.501V265.774H166.445V310.204Z" fill="#FAFAFA"/>
<path d="M128.897 310.204H137.953V265.774H128.897V310.204Z" fill="#F5F5F5"/>
<path d="M157.388 310.208H166.444V268.898H157.388V310.208Z" fill="#F5F5F5"/>
<path d="M137.953 310.208H147.009V268.898H137.953V310.208Z" fill="#FAFAFA"/>
<path d="M147.009 310.204H152.862V265.774H147.009V310.204Z" fill="#ECECEC"/>
<path d="M152.865 310.208H157.392V268.898H152.865V310.208Z" fill="#FAFAFA"/>
<path d="M119.841 310.204H128.896V265.774H119.841V310.204Z" fill="#ECECEC"/>
<path d="M110.785 310.208H119.841V268.898H110.785V310.208Z" fill="#E7E7E7"/>
<path d="M91.3493 310.208H100.405V268.898H91.3493V310.208Z" fill="#E7E7E7"/>
<path d="M100.405 310.204H106.259V265.774H100.405V310.204Z" fill="#FAFAFA"/>
<path d="M106.263 310.208H110.789V268.898H106.263V310.208Z" fill="#ECECEC"/>
<path d="M86.8263 310.208H91.3525V266.831H86.8263V310.208Z" fill="#ECECEC"/>
<path d="M95.8792 325.326H86.8232V369.756H95.8792V325.326Z" fill="#ECECEC"/>
<path d="M133.427 325.326H124.371V369.756H133.427V325.326Z" fill="#FAFAFA"/>
<path d="M104.935 328.45H95.8789V369.76H104.935V328.45Z" fill="#FAFAFA"/>
<path d="M124.37 328.45H115.314V369.76H124.37V328.45Z" fill="#ECECEC"/>
<path d="M115.318 325.326H109.465V369.756H115.318V325.326Z" fill="#FAFAFA"/>
<path d="M109.462 328.45H104.936V369.76H109.462V328.45Z" fill="#F5F5F5"/>
<path d="M142.483 325.326H133.427V369.756H142.483V325.326Z" fill="#ECECEC"/>
<path d="M151.538 328.45H142.482V369.76H151.538V328.45Z" fill="#F5F5F5"/>
<path d="M170.974 328.45H161.918V369.76H170.974V328.45Z" fill="#E7E7E7"/>
<path d="M161.922 325.326H156.068V369.756H161.922V325.326Z" fill="#FAFAFA"/>
<path d="M181.357 325.326H175.504V369.756H181.357V325.326Z" fill="#FAFAFA"/>
<path d="M156.065 328.45H151.539V369.76H156.065V328.45Z" fill="#ECECEC"/>
<path d="M175.501 326.379H170.975V369.756H175.501V326.379Z" fill="#ECECEC"/>
<path d="M96.9468 171.05C96.011 171.51 95.238 172.245 94.7311 173.156C94.0288 174.559 96.1919 177.177 96.1919 177.177C96.1919 177.177 98.0002 178.437 99.7981 177.62L101.596 176.802C101.596 176.802 98.5234 171.471 97.0311 171.418L96.9468 171.05Z" fill="#E7E7E7"/>
<path d="M104.626 171.007C104.847 173.538 103.278 176.728 101.02 176.921C98.7621 177.114 96.6658 174.247 96.4551 171.716C96.2445 169.186 98.0599 168.94 100.318 168.744C102.576 168.547 104.408 168.477 104.626 171.007Z" fill="#E7E7E7"/>
<path d="M98.0002 170.263C98.0002 170.263 99.7243 171.635 103.267 170.835C103.292 170.835 97.6842 174.572 98.0002 170.263Z" fill="#E7E7E7"/>
<path d="M99.5312 169.758C99.5312 169.758 101.522 169.407 101.554 170.242C101.554 170.242 103.243 170.151 103.008 169.442C102.772 168.733 99.5312 169.758 99.5312 169.758Z" fill="#E7E7E7"/>
<g opacity="0.2">
<path d="M98.0002 170.263C98.0002 170.263 99.7243 171.635 103.267 170.835C103.292 170.835 97.6842 174.572 98.0002 170.263Z" fill="#FAFAFA"/>
</g>
<g opacity="0.2">
<path d="M99.5312 169.758C99.5312 169.758 101.522 169.407 101.554 170.242C101.554 170.242 103.243 170.151 103.008 169.442C102.772 168.733 99.5312 169.758 99.5312 169.758Z" fill="#FAFAFA"/>
</g>
<path d="M97.2275 177.721C97.6107 178.291 98.1452 178.743 98.771 179.026C99.3968 179.309 100.089 179.413 100.771 179.325C101.449 179.222 102.099 178.979 102.679 178.612C103.258 178.244 103.755 177.76 104.138 177.191C104.898 176.042 105.329 174.707 105.385 173.331C105.406 172.98 105.434 172.095 104.967 171.958C104.5 171.821 104.264 172.429 104.078 172.709C103.525 173.514 102.888 174.259 102.179 174.931C101.474 175.579 100.698 176.144 99.8646 176.615C99.6329 176.749 97.3539 177.928 97.2275 177.721Z" fill="#E7E7E7"/>
<path d="M106.919 172.671C107.126 173.188 107.199 173.749 107.13 174.301C107.061 174.854 106.853 175.38 106.525 175.83C106.057 176.392 105.484 176.859 104.84 177.205C104.404 177.468 103.843 177.714 103.435 177.44C103.028 177.167 103.017 176.468 103.123 175.931C103.284 175.103 103.474 174.278 103.678 173.475C103.846 172.804 103.951 171.681 104.345 171.113C104.738 170.544 105.237 170.895 105.795 171.281C106.293 171.63 106.682 172.111 106.919 172.671Z" fill="#E7E7E7"/>
<g opacity="0.2">
<path d="M97.8031 176.32C97.3655 176.293 96.9442 176.144 96.5877 175.888C96.2312 175.633 95.9539 175.283 95.7876 174.877C95.5523 174.277 95.5594 172.751 96.3389 172.558C96.683 173.919 96.9815 175.144 97.8031 176.32Z" fill="#FAFAFA"/>
</g>
<g opacity="0.2">
<path d="M103.692 176.261C104.104 176.139 104.48 175.917 104.786 175.615C105.092 175.313 105.32 174.941 105.448 174.531C105.589 174.082 105.413 171.769 104.725 172.741C104.5 173.057 104.542 174.071 104.426 174.496C104.25 175.11 104.004 175.703 103.692 176.261Z" fill="#FAFAFA"/>
</g>
<g opacity="0.2">
<path d="M100.539 177.686C100.864 177.95 101.268 178.1 101.687 178.111C102.107 178.121 102.518 177.993 102.856 177.745C102.772 178.194 101.361 178.566 100.925 178.696C99.7874 179.03 99.1905 178.531 98.0879 178.068C98.0879 178.068 99.8366 178.335 100.539 177.686Z" fill="#FAFAFA"/>
</g>
<path d="M98.5615 224.169L98.6704 189.737L100.437 179.269L101.107 179.381L99.3481 189.804L99.2252 224.822L98.5615 224.169Z" fill="#E1E1E1"/>
<path d="M99.278 189.562L98.7372 189.98C98.138 189.126 97.6062 188.228 97.1465 187.292C96.2757 185.646 95.2855 183.782 93.7861 182.133L94.2883 181.673C95.8474 183.389 96.8586 185.291 97.747 186.972C98.1892 187.874 98.701 188.74 99.278 189.562Z" fill="#E1E1E1"/>
<path d="M99.6926 184.943C100.618 184.698 101.424 184.127 101.961 183.336C102.562 182.441 102.772 181.349 102.969 180.293C101.778 180.644 100.511 180.068 99.2678 180.212C98.7752 180.272 98.303 180.444 97.8878 180.716C97.4725 180.987 97.1253 181.35 96.873 181.777C96.2304 182.886 95.9671 184.143 96.5219 184.648C97.0029 185.066 98.4672 185.266 99.6926 184.943Z" fill="#E7E7E7"/>
<path d="M95.1175 182.568C94.5644 182.913 93.9428 183.134 93.2959 183.215C92.6489 183.296 91.9921 183.236 91.3708 183.038C90.1312 182.634 89.7731 180.778 89.292 179.571C90.4156 179.339 93.2634 179.5 93.906 179.571C94.2305 179.588 94.5469 179.679 94.8319 179.835C95.1169 179.991 95.3633 180.209 95.5529 180.473C95.7351 180.744 95.8112 181.072 95.7665 181.396C95.7218 181.72 95.5595 182.016 95.3106 182.227C95.2754 182.192 95.1175 182.568 95.1175 182.568Z" fill="#E7E7E7"/>
<path d="M89.4635 184.578C90.2185 183.666 92.083 183.002 93.2488 183.213C93.8045 183.314 94.3283 183.546 94.777 183.889C95.2256 184.231 95.5864 184.676 95.8297 185.185C95.5207 185.926 94.6956 186.344 93.8949 186.4C93.0908 186.407 92.2921 186.267 91.5388 185.986C90.7848 185.707 89.9866 185.566 89.1826 185.571L89.4635 184.578Z" fill="#E7E7E7"/>
<path d="M112.447 178.658C113.205 179.376 113.727 180.307 113.942 181.329C114.192 182.884 111.365 184.744 111.365 184.744C111.365 184.744 109.258 185.417 107.787 184.108L106.309 182.799C106.309 182.799 110.814 178.606 112.257 178.995L112.447 178.658Z" fill="#E7E7E7"/>
<path d="M105.1 176.376C104.148 178.728 104.707 182.237 106.81 183.09C108.913 183.943 111.758 181.809 112.713 179.458C113.668 177.106 112.011 176.331 109.904 175.482C107.797 174.632 106.055 174.004 105.1 176.376Z" fill="#E7E7E7"/>
<path d="M111.646 177.591C111.646 177.591 109.592 178.398 106.428 176.584C106.428 176.584 110.691 181.81 111.646 177.591Z" fill="#E7E7E7"/>
<path d="M110.339 176.661C110.339 176.661 108.538 175.745 108.264 176.531C108.264 176.531 106.677 175.945 107.109 175.338C107.541 174.731 110.339 176.661 110.339 176.661Z" fill="#E7E7E7"/>
<g opacity="0.2">
<path d="M111.646 177.591C111.646 177.591 109.592 178.398 106.428 176.584C106.428 176.584 110.691 181.81 111.646 177.591Z" fill="#FAFAFA"/>
</g>
<g opacity="0.2">
<path d="M110.339 176.661C110.339 176.661 108.538 175.745 108.264 176.531C108.264 176.531 106.677 175.945 107.109 175.338C107.541 174.731 110.339 176.661 110.339 176.661Z" fill="#FAFAFA"/>
</g>
<path d="M110.199 184.95C109.664 185.382 109.019 185.657 108.337 185.743C107.655 185.829 106.962 185.724 106.336 185.438C105.718 185.141 105.169 184.718 104.723 184.197C104.277 183.677 103.944 183.069 103.745 182.413C103.359 181.09 103.341 179.688 103.692 178.356C103.773 178.005 104.008 177.159 104.493 177.166C104.978 177.173 105.016 177.819 105.121 178.145C105.413 179.077 105.803 179.976 106.284 180.826C106.766 181.653 107.341 182.422 107.997 183.118C108.183 183.311 110.016 185.108 110.199 184.95Z" fill="#E7E7E7"/>
<path d="M102.421 177.275C102.069 177.708 101.834 178.224 101.738 178.773C101.641 179.322 101.687 179.886 101.869 180.413C102.151 181.088 102.559 181.703 103.074 182.224C103.425 182.599 103.874 183.003 104.362 182.866C104.85 182.729 105.065 182.059 105.107 181.515C105.196 180.677 105.261 179.836 105.303 178.991C105.335 178.289 105.567 177.198 105.36 176.535C105.152 175.871 104.57 176.064 103.92 176.271C103.335 176.457 102.815 176.805 102.421 177.275Z" fill="#E7E7E7"/>
<g opacity="0.2">
<path d="M110.062 183.441C110.487 183.545 110.934 183.526 111.35 183.387C111.765 183.248 112.133 182.994 112.411 182.655C112.811 182.149 113.257 180.69 112.569 180.275C111.838 181.469 111.192 182.56 110.062 183.441Z" fill="#FAFAFA"/>
</g>
<g opacity="0.2">
<path d="M104.451 181.641C104.093 181.404 103.798 181.082 103.593 180.705C103.388 180.327 103.279 179.905 103.274 179.476C103.274 179.002 104.124 176.844 104.496 177.974C104.616 178.325 104.279 179.3 104.268 179.728C104.253 180.371 104.315 181.013 104.451 181.641Z" fill="#FAFAFA"/>
</g>
<g opacity="0.2">
<path d="M107.046 183.943C106.656 184.099 106.226 184.122 105.821 184.009C105.417 183.897 105.061 183.654 104.809 183.318C104.763 183.771 105.999 184.543 106.378 184.796C107.369 185.449 108.085 185.147 109.275 185.031C109.275 185.031 107.527 184.771 107.046 183.943Z" fill="#FAFAFA"/>
</g>
<path d="M97.582 219.027L98.0104 217.616L98.5898 215.718L99.2605 213.5L104.615 195.871L105.286 190.814L105.88 186.326L106.002 185.396L106.336 185.438L106.343 185.441L106.68 185.483L106.67 185.564L106.55 186.445L105.918 191.242L105.402 195.152L105.286 196.008L105.244 196.149L99.257 215.837L98.5793 218.044L98.2703 219.069L97.8419 220.473L97.582 219.027Z" fill="#E1E1E1"/>
<path d="M104.756 195.679L105.149 196.233C105.974 195.594 106.747 194.89 107.46 194.127C108.78 192.811 110.269 191.32 112.193 190.183L111.842 189.597C109.847 190.776 108.331 192.303 106.975 193.647C106.289 194.381 105.547 195.06 104.756 195.679Z" fill="#E1E1E1"/>
<path d="M105.725 191.117C104.914 190.607 104.314 189.824 104.032 188.909C103.72 187.881 103.843 186.775 103.966 185.705C104.998 186.407 106.388 186.217 107.526 186.716C107.979 186.919 108.379 187.223 108.696 187.604C109.013 187.985 109.239 188.434 109.356 188.916C109.643 190.166 109.524 191.443 108.832 191.762C108.253 192.036 106.778 191.798 105.725 191.117Z" fill="#E7E7E7"/>
<path d="M110.792 190.204C111.22 190.696 111.749 191.089 112.343 191.356C112.937 191.623 113.582 191.758 114.233 191.752C115.536 191.731 116.425 190.061 117.239 189.046C116.235 188.499 113.464 187.814 112.829 187.688C112.514 187.61 112.185 187.603 111.867 187.669C111.55 187.734 111.251 187.871 110.992 188.067C110.737 188.274 110.568 188.567 110.516 188.891C110.464 189.215 110.534 189.546 110.712 189.822C110.75 189.794 110.792 190.204 110.792 190.204Z" fill="#E7E7E7"/>
<path d="M115.6 193.784C115.147 192.689 113.563 191.51 112.387 191.37C111.826 191.302 111.257 191.368 110.727 191.563C110.197 191.759 109.721 192.077 109.339 192.493C109.408 192.889 109.583 193.26 109.845 193.564C110.108 193.869 110.449 194.097 110.831 194.223C111.597 194.468 112.402 194.569 113.205 194.521C114.008 194.475 114.812 194.576 115.579 194.82L115.6 193.784Z" fill="#E7E7E7"/>
<path d="M88.2627 177.282C87.4248 177.906 86.7976 178.77 86.4649 179.76C86.0365 181.273 88.6244 183.455 88.6244 183.455C88.6244 183.455 90.6294 184.368 92.2517 183.241L93.8739 182.115C93.8739 182.115 89.892 177.423 88.4137 177.637L88.2627 177.282Z" fill="#E7E7E7"/>
<path d="M95.8304 175.861C96.5011 178.317 95.532 181.728 93.3444 182.325C91.1567 182.922 88.5794 180.476 87.9087 178.026C87.238 175.576 88.9902 175.008 91.1778 174.411C93.3654 173.815 95.1597 173.411 95.8304 175.861Z" fill="#E7E7E7"/>
<path d="M89.1865 176.317C89.1865 176.317 91.1318 177.37 94.4887 175.931C94.4887 175.931 89.6395 180.616 89.1865 176.317Z" fill="#E7E7E7"/>
<path d="M90.5947 175.548C90.5947 175.548 92.4909 174.846 92.6699 175.66C92.6699 175.66 94.3133 175.264 93.9551 174.607C93.597 173.951 90.5947 175.548 90.5947 175.548Z" fill="#E7E7E7"/>
<g opacity="0.2">
<path d="M89.1865 176.317C89.1865 176.317 91.1318 177.37 94.4887 175.931C94.4887 175.931 89.6395 180.616 89.1865 176.317Z" fill="#FAFAFA"/>
</g>
<g opacity="0.2">
<path d="M90.5947 175.548C90.5947 175.548 92.4909 174.846 92.6699 175.66C92.6699 175.66 94.3133 175.264 93.9551 174.607C93.597 173.951 90.5947 175.548 90.5947 175.548Z" fill="#FAFAFA"/>
</g>
<path d="M89.7588 183.795C90.238 184.287 90.8448 184.634 91.511 184.8C92.1772 184.966 92.8764 184.942 93.53 184.732C94.1796 184.51 94.7758 184.155 95.2806 183.689C95.7854 183.224 96.1877 182.659 96.4621 182.03C97.002 180.764 97.1854 179.374 96.9923 178.012C96.9502 177.661 96.8202 176.783 96.3357 176.734C95.8511 176.685 95.7422 177.324 95.5948 177.633C95.1959 178.524 94.7039 179.371 94.127 180.159C93.5496 180.923 92.8876 181.619 92.1536 182.233C91.9499 182.405 89.9238 183.974 89.7588 183.795Z" fill="#E7E7E7"/>
<path d="M98.3832 177.078C98.6826 177.549 98.8563 178.088 98.8876 178.645C98.919 179.201 98.807 179.757 98.5623 180.258C98.2064 180.896 97.7293 181.459 97.1577 181.914C96.7785 182.265 96.2694 182.595 95.8023 182.402C95.3353 182.209 95.2159 181.521 95.2229 180.974C95.2229 180.129 95.2569 179.287 95.3248 178.447C95.3704 177.745 95.2721 176.632 95.5566 175.99C95.841 175.348 96.3957 175.615 97.0138 175.895C97.574 176.151 98.0493 176.561 98.3832 177.078Z" fill="#E7E7E7"/>
<g opacity="0.2">
<path d="M90.0713 182.311C89.6366 182.364 89.1958 182.293 88.7995 182.107C88.4032 181.92 88.0675 181.626 87.831 181.258C87.4799 180.707 87.2235 179.205 87.9539 178.875C88.5368 180.145 89.053 181.29 90.0713 182.311Z" fill="#FAFAFA"/>
</g>
<g opacity="0.2">
<path d="M95.8545 181.195C96.2346 180.999 96.5611 180.712 96.8058 180.361C97.0505 180.01 97.2061 179.605 97.2591 179.181C97.3117 178.711 96.7253 176.468 96.2056 177.545C96.0406 177.896 96.2653 178.889 96.2056 179.3C96.1634 179.943 96.0456 180.579 95.8545 181.195Z" fill="#FAFAFA"/>
</g>
<g opacity="0.2">
<path d="M93.0072 183.167C93.3749 183.368 93.7986 183.443 94.213 183.38C94.6274 183.316 95.0094 183.118 95.3001 182.816C95.3001 183.269 93.9763 183.89 93.569 184.097C92.5156 184.631 91.8343 184.245 90.665 183.989C90.665 183.982 92.4348 183.929 93.0072 183.167Z" fill="#FAFAFA"/>
</g>
<path d="M99.4187 229.247L93.3369 195.356L93.1895 184.74L93.8707 184.729L94.0146 195.3L100.188 229.77L99.4187 229.247Z" fill="#E1E1E1"/>
<path d="M93.906 195.076L93.446 195.581C92.7033 194.849 92.0188 194.061 91.3988 193.223C90.2435 191.763 88.9408 190.106 87.1641 188.751L87.5784 188.211C89.4184 189.615 90.7387 191.31 91.9325 192.801C92.5296 193.61 93.1894 194.37 93.906 195.076Z" fill="#E1E1E1"/>
<path d="M93.4847 190.457C94.349 190.048 95.0372 189.342 95.423 188.467C95.8549 187.481 95.8654 186.361 95.8654 185.291C94.7593 185.856 93.4074 185.516 92.2135 185.877C91.7396 186.025 91.3059 186.28 90.9461 186.622C90.5863 186.964 90.3099 187.384 90.1383 187.849C89.7028 189.053 89.6748 190.338 90.3244 190.734C90.8581 191.061 92.3364 190.994 93.4847 190.457Z" fill="#E7E7E7"/>
<path d="M88.5505 188.941C88.0688 189.38 87.4973 189.708 86.8758 189.904C86.2543 190.1 85.5976 190.158 84.9513 190.075C83.6626 189.903 82.9709 188.141 82.2861 187.039C83.3396 186.611 86.1768 186.256 86.8229 186.204C87.1451 186.163 87.4724 186.195 87.7805 186.298C88.0886 186.4 88.3697 186.571 88.6032 186.797C88.8251 187.031 88.9552 187.337 88.9693 187.66C88.9835 187.982 88.8809 188.299 88.6804 188.551C88.6418 188.541 88.5505 188.941 88.5505 188.941Z" fill="#E7E7E7"/>
<path d="M83.3542 191.934C83.9336 190.881 85.6471 189.912 86.834 189.912C87.3981 189.911 87.9544 190.044 88.4569 190.301C88.9594 190.557 89.3937 190.929 89.7239 191.386C89.5554 192.169 88.8179 192.73 88.0384 192.93C87.2481 193.078 86.4374 193.078 85.6471 192.93C84.8567 192.785 84.0463 192.785 83.2559 192.93L83.3542 191.934Z" fill="#E7E7E7"/>
<path d="M101.916 208.453H94.7768C94.516 208.448 94.2604 208.527 94.0488 208.68C93.8372 208.833 93.681 209.05 93.604 209.299C93.0176 211.149 91.7676 216.016 91.7676 223.688C91.7676 232.111 93.9657 243.292 94.6575 246.598C94.7137 246.868 94.8609 247.11 95.0743 247.284C95.2878 247.459 95.5546 247.555 95.8303 247.556H100.809C101.085 247.555 101.352 247.459 101.565 247.284C101.779 247.11 101.926 246.868 101.982 246.598C102.685 243.292 104.872 232.111 104.872 223.688C104.872 216.02 103.626 211.152 103.039 209.299C102.964 209.059 102.815 208.848 102.613 208.696C102.412 208.544 102.168 208.459 101.916 208.453Z" fill="#F0F0F0"/>
<path d="M298.502 444C426.358 444 530.006 437.95 530.006 430.488C530.006 423.026 426.358 416.977 298.502 416.977C170.646 416.977 66.998 423.026 66.998 430.488C66.998 437.95 170.646 444 298.502 444Z" fill="#F5F5F5"/>
<path d="M144.214 384.043C144.02 384.026 143.839 383.935 143.709 383.79C143.579 383.645 143.508 383.456 143.512 383.261C144.397 348.187 146.209 290.656 146.321 290.34C146.379 290.146 146.511 289.984 146.689 289.888C146.867 289.791 147.075 289.77 147.269 289.828C147.463 289.885 147.626 290.018 147.722 290.195C147.818 290.373 147.839 290.582 147.782 290.775C147.761 290.852 145.931 348.587 145.057 383.299C145.051 383.502 144.966 383.694 144.819 383.833C144.672 383.973 144.476 384.048 144.274 384.043H144.214Z" fill="#1A2E35"/>
<path d="M139.498 266.921C139.793 269.624 143.009 278.987 145.731 278.696C148.452 278.404 149.593 268.56 149.288 265.858C149.148 264.56 148.498 263.372 147.482 262.553C146.465 261.734 145.164 261.353 143.866 261.492C142.568 261.632 141.378 262.281 140.559 263.297C139.74 264.313 139.358 265.613 139.498 266.911V266.921Z" fill="#344071"/>
<path d="M152.617 296.468C152.322 293.765 149.105 284.399 146.384 284.693C143.663 284.988 142.521 294.829 142.83 297.531C142.97 298.828 143.62 300.017 144.636 300.835C145.652 301.653 146.953 302.035 148.25 301.895C149.548 301.755 150.737 301.106 151.556 300.09C152.375 299.075 152.756 297.775 152.617 296.478V296.468Z" fill="#344071"/>
<path d="M131.278 288.253C133.982 287.958 143.35 284.743 143.059 282.023C142.767 279.303 132.918 278.163 130.214 278.468C128.916 278.608 127.726 279.257 126.907 280.273C126.088 281.289 125.706 282.589 125.846 283.887C125.985 285.184 126.635 286.373 127.652 287.192C128.669 288.011 129.969 288.392 131.267 288.253H131.278Z" fill="#344071"/>
<path d="M160.855 275.141C158.151 275.435 148.783 278.65 149.074 281.37C149.365 284.09 159.215 285.23 161.919 284.922C162.561 284.852 163.184 284.657 163.751 284.348C164.318 284.038 164.819 283.62 165.225 283.117C165.63 282.614 165.932 282.036 166.114 281.416C166.296 280.796 166.354 280.147 166.285 279.505C166.216 278.862 166.021 278.24 165.711 277.673C165.401 277.106 164.983 276.606 164.48 276.201C163.976 275.795 163.398 275.493 162.778 275.311C162.158 275.129 161.508 275.071 160.865 275.141H160.855Z" fill="#344071"/>
<path d="M130.969 275.888C133.076 277.59 142.002 281.925 143.705 279.808C145.408 277.692 139.256 269.919 137.139 268.227C136.121 267.409 134.82 267.029 133.521 267.17C132.223 267.312 131.034 267.963 130.216 268.98C129.398 269.997 129.018 271.298 129.159 272.595C129.3 273.893 129.951 275.081 130.969 275.899V275.888Z" fill="#344071"/>
<path d="M161.145 287.505C159.039 285.803 150.113 281.468 148.41 283.585C146.707 285.701 152.858 293.471 154.976 295.166C155.48 295.571 156.058 295.873 156.679 296.054C157.299 296.235 157.949 296.293 158.592 296.223C159.235 296.153 159.857 295.958 160.424 295.647C160.991 295.337 161.492 294.918 161.897 294.415C162.302 293.911 162.604 293.333 162.785 292.713C162.967 292.093 163.024 291.443 162.955 290.801C162.885 290.158 162.689 289.536 162.379 288.969C162.068 288.403 161.649 287.903 161.145 287.498V287.505Z" fill="#344071"/>
<path d="M140.246 296.777C141.949 294.671 146.286 285.75 144.168 284.048C142.051 282.346 134.277 288.495 132.581 290.611C131.762 291.628 131.382 292.928 131.523 294.225C131.664 295.522 132.315 296.71 133.332 297.528C134.349 298.346 135.65 298.726 136.948 298.585C138.246 298.444 139.435 297.794 140.253 296.777H140.246Z" fill="#344071"/>
<path d="M151.869 266.617C150.165 268.722 145.829 277.643 147.946 279.346C150.064 281.048 157.841 274.899 159.534 272.783C160.352 271.765 160.732 270.465 160.591 269.167C160.45 267.87 159.799 266.681 158.781 265.864C157.763 265.046 156.462 264.666 155.163 264.807C153.865 264.948 152.676 265.599 151.858 266.617H151.869Z" fill="#344071"/>
<g opacity="0.6">
<path d="M139.498 266.921C139.793 269.624 143.009 278.987 145.731 278.696C148.452 278.404 149.593 268.56 149.288 265.858C149.148 264.56 148.498 263.372 147.482 262.553C146.465 261.734 145.164 261.353 143.866 261.492C142.568 261.632 141.378 262.281 140.559 263.297C139.74 264.313 139.358 265.613 139.498 266.911V266.921Z" fill="white"/>
<path d="M152.617 296.468C152.322 293.765 149.105 284.399 146.384 284.693C143.663 284.988 142.521 294.829 142.83 297.531C142.97 298.828 143.62 300.017 144.636 300.835C145.652 301.653 146.953 302.035 148.25 301.895C149.548 301.755 150.737 301.106 151.556 300.09C152.375 299.075 152.756 297.775 152.617 296.478V296.468Z" fill="white"/>
<path d="M131.278 288.252C133.982 287.957 143.35 284.742 143.059 282.022C142.767 279.302 132.918 278.162 130.214 278.467C128.916 278.607 127.726 279.256 126.907 280.272C126.088 281.288 125.706 282.588 125.846 283.886C125.985 285.183 126.635 286.372 127.652 287.191C128.669 288.01 129.969 288.391 131.267 288.252H131.278Z" fill="white"/>
<path d="M160.855 275.141C158.151 275.435 148.783 278.65 149.074 281.37C149.365 284.09 159.215 285.23 161.919 284.922C162.561 284.852 163.184 284.657 163.751 284.348C164.318 284.038 164.819 283.62 165.225 283.117C165.63 282.614 165.932 282.036 166.114 281.416C166.296 280.796 166.354 280.147 166.285 279.505C166.216 278.862 166.021 278.24 165.711 277.673C165.401 277.106 164.983 276.606 164.48 276.201C163.976 275.795 163.398 275.493 162.778 275.311C162.158 275.129 161.508 275.071 160.865 275.141H160.855Z" fill="white"/>
<path d="M130.969 275.888C133.076 277.59 142.002 281.925 143.705 279.808C145.408 277.692 139.256 269.919 137.139 268.227C136.121 267.409 134.82 267.029 133.521 267.17C132.223 267.312 131.034 267.963 130.216 268.98C129.398 269.997 129.018 271.298 129.159 272.595C129.3 273.893 129.951 275.081 130.969 275.899V275.888Z" fill="white"/>
<path d="M161.145 287.505C159.039 285.803 150.113 281.468 148.41 283.585C146.707 285.701 152.858 293.471 154.976 295.166C155.48 295.571 156.058 295.873 156.679 296.054C157.299 296.235 157.949 296.293 158.592 296.223C159.235 296.153 159.857 295.958 160.424 295.647C160.991 295.337 161.492 294.918 161.897 294.415C162.302 293.911 162.604 293.333 162.785 292.713C162.967 292.093 163.024 291.443 162.955 290.801C162.885 290.158 162.689 289.536 162.379 288.969C162.068 288.403 161.649 287.903 161.145 287.498V287.505Z" fill="white"/>
<path d="M140.246 296.777C141.949 294.671 146.286 285.75 144.168 284.048C142.051 282.346 134.277 288.495 132.581 290.611C131.762 291.628 131.382 292.928 131.523 294.225C131.664 295.522 132.315 296.71 133.332 297.528C134.349 298.346 135.65 298.726 136.948 298.585C138.246 298.444 139.435 297.794 140.253 296.777H140.246Z" fill="white"/>
<path d="M151.869 266.617C150.165 268.722 145.829 277.643 147.946 279.346C150.064 281.048 157.841 274.899 159.534 272.783C160.352 271.765 160.732 270.465 160.591 269.167C160.45 267.87 159.799 266.681 158.781 265.864C157.763 265.046 156.462 264.666 155.163 264.807C153.865 264.948 152.676 265.599 151.858 266.617H151.869Z" fill="white"/>
</g>
<path d="M140.263 282.325C140.388 283.47 140.85 284.553 141.59 285.436C142.331 286.319 143.316 286.963 144.423 287.286C145.529 287.609 146.707 287.597 147.807 287.251C148.906 286.906 149.879 286.242 150.601 285.344C151.323 284.446 151.763 283.354 151.864 282.206C151.966 281.059 151.724 279.907 151.171 278.896C150.617 277.885 149.776 277.062 148.754 276.529C147.732 275.996 146.574 275.778 145.428 275.902C144.667 275.984 143.929 276.216 143.258 276.583C142.586 276.95 141.993 277.447 141.514 278.043C141.034 278.64 140.676 279.325 140.462 280.059C140.247 280.794 140.18 281.564 140.263 282.325Z" fill="#344071"/>
<path d="M140.839 358.344C134.111 358.491 122.601 352.283 118.071 346.218C113.478 340.07 126.365 343.856 125.027 339.017C123.689 334.177 107.821 337.806 104.875 330.882C101.929 323.958 113.383 325.516 112.92 321.971C112.456 318.427 100.588 319.185 96.7672 311.825C92.9467 304.466 103.386 308.565 101.739 305.508C100.092 302.451 86.9703 289.642 92.4376 286.943C97.9049 284.244 110.212 297.601 114.324 299.086C118.436 300.57 119.374 291.316 124.732 295.724C130.09 300.132 126.137 319.479 132.457 322.013C137.148 323.898 135.129 315.05 140.533 317.268C149.969 321.16 143.567 358.284 140.839 358.344Z" fill="#344071"/>
<g opacity="0.2">
<path d="M140.839 358.344C134.111 358.491 122.601 352.283 118.071 346.218C113.478 340.07 126.365 343.856 125.027 339.017C123.689 334.177 107.821 337.806 104.875 330.882C101.929 323.958 113.383 325.516 112.92 321.971C112.456 318.427 100.588 319.185 96.7672 311.825C92.9467 304.466 103.386 308.565 101.739 305.508C100.092 302.451 86.9703 289.642 92.4376 286.943C97.9049 284.244 110.212 297.601 114.324 299.086C118.436 300.57 119.374 291.316 124.732 295.724C130.09 300.132 126.137 319.479 132.457 322.013C137.148 323.898 135.129 315.05 140.533 317.268C149.969 321.16 143.567 358.284 140.839 358.344Z" fill="white"/>
</g>
<path d="M150.502 349.812C150.615 350.001 149.607 350.956 152.929 351.093C161.11 351.444 175.574 350.875 181.02 343.442C188.777 332.829 170.89 333.805 172.631 327.951C174.373 322.097 193.584 326.881 197.334 318.525C201.084 310.169 187.109 311.801 187.759 307.501C188.408 303.202 203.068 308.775 207.9 299.914C212.732 291.052 199.926 295.79 202.001 292.119C204.076 288.448 220.337 273.168 213.75 269.757C207.163 266.346 191.881 282.307 186.842 284.012C181.803 285.718 180.637 270.069 174.015 275.309C167.392 280.549 171.74 304.167 164.014 307.101C158.259 309.288 161.398 300.819 154.298 301.135C144.638 301.588 141.464 334.714 150.502 349.812Z" fill="#344071"/>
<g opacity="0.3">
<path d="M150.502 349.812C150.615 350.001 149.607 350.956 152.929 351.093C161.11 351.444 175.574 350.875 181.02 343.442C188.777 332.829 170.89 333.805 172.631 327.951C174.373 322.097 193.584 326.881 197.334 318.525C201.084 310.169 187.109 311.801 187.759 307.501C188.408 303.202 203.068 308.775 207.9 299.914C212.732 291.052 199.926 295.79 202.001 292.119C204.076 288.448 220.337 273.168 213.75 269.757C207.163 266.346 191.881 282.307 186.842 284.012C181.803 285.718 180.637 270.069 174.015 275.309C167.392 280.549 171.74 304.167 164.014 307.101C158.259 309.288 161.398 300.819 154.298 301.135C144.638 301.588 141.464 334.714 150.502 349.812Z" fill="white"/>
</g>
<path d="M144.372 378.745H144.33C144.19 378.727 144.062 378.655 143.975 378.544C143.889 378.433 143.849 378.292 143.866 378.151C150.58 323.238 182.228 300.918 182.548 300.701C182.664 300.621 182.807 300.591 182.945 300.616C183.083 300.642 183.206 300.722 183.285 300.837C183.365 300.953 183.395 301.096 183.369 301.234C183.344 301.372 183.264 301.495 183.148 301.574C182.836 301.792 151.574 323.87 144.923 378.281C144.906 378.413 144.839 378.534 144.737 378.62C144.635 378.706 144.505 378.75 144.372 378.745Z" fill="#1A2E35"/>
<path d="M175.346 308.333C175.212 308.339 175.082 308.296 174.979 308.21C174.877 308.125 174.81 308.005 174.792 307.873C174.774 307.741 174.806 307.607 174.882 307.497C174.958 307.387 175.072 307.31 175.202 307.28C175.398 307.217 180.118 305.726 187.843 307.365C187.982 307.394 188.105 307.477 188.183 307.597C188.261 307.716 188.288 307.862 188.259 308.002C188.23 308.141 188.146 308.263 188.026 308.341C187.907 308.419 187.761 308.447 187.622 308.417C180.202 306.842 175.584 308.288 175.542 308.302C175.479 308.323 175.413 308.334 175.346 308.333Z" fill="#1A2E35"/>
<path d="M169.496 315.002C169.359 314.996 169.23 314.938 169.135 314.84C169.041 314.742 168.987 314.611 168.986 314.475C168.821 297.868 178.439 284.894 178.538 284.764C178.579 284.708 178.632 284.661 178.692 284.626C178.752 284.59 178.819 284.567 178.888 284.557C178.957 284.547 179.027 284.551 179.095 284.569C179.163 284.586 179.226 284.617 179.282 284.658C179.338 284.7 179.385 284.753 179.42 284.813C179.456 284.873 179.479 284.94 179.489 285.009C179.499 285.078 179.495 285.148 179.477 285.216C179.46 285.283 179.429 285.347 179.387 285.402C179.292 285.529 169.906 298.23 170.05 314.465C170.051 314.605 169.996 314.741 169.898 314.842C169.799 314.942 169.665 315 169.524 315.002H169.496Z" fill="#1A2E35"/>
<path d="M160.071 329.039C159.937 329.033 159.811 328.973 159.72 328.875C159.672 328.824 159.634 328.764 159.609 328.699C159.584 328.634 159.572 328.564 159.574 328.495C159.576 328.425 159.592 328.356 159.621 328.292C159.649 328.229 159.69 328.171 159.741 328.124C159.811 328.057 166.933 321.477 176.245 324.814C176.367 324.868 176.465 324.967 176.518 325.09C176.571 325.213 176.576 325.351 176.532 325.478C176.488 325.604 176.397 325.709 176.279 325.772C176.161 325.835 176.023 325.851 175.894 325.818C167.178 322.691 160.531 328.832 160.468 328.896C160.415 328.946 160.353 328.984 160.285 329.009C160.216 329.034 160.144 329.044 160.071 329.039Z" fill="#1A2E35"/>
<path d="M155.141 338.866C155.041 338.862 154.944 338.829 154.861 338.772C154.778 338.715 154.713 338.635 154.674 338.543C154.527 338.192 151.04 329.846 152.961 317.949C152.971 317.88 152.995 317.813 153.031 317.753C153.068 317.693 153.116 317.641 153.173 317.6C153.23 317.559 153.295 317.53 153.363 317.515C153.432 317.499 153.503 317.498 153.572 317.51C153.71 317.533 153.835 317.609 153.917 317.723C153.999 317.837 154.033 317.979 154.011 318.117C152.139 329.699 155.619 338.044 155.654 338.122C155.689 338.204 155.702 338.295 155.693 338.384C155.684 338.473 155.652 338.559 155.601 338.633C155.55 338.706 155.481 338.766 155.401 338.806C155.32 338.846 155.231 338.866 155.141 338.862V338.866Z" fill="#1A2E35"/>
<path d="M144.586 398.359C144.452 398.353 144.325 398.296 144.23 398.201C144.136 398.105 144.081 397.977 144.077 397.843L143.375 383.3C141.338 334.939 108.148 302.048 107.811 301.721C107.756 301.674 107.711 301.616 107.679 301.55C107.647 301.484 107.629 301.413 107.626 301.34C107.622 301.267 107.634 301.194 107.66 301.126C107.686 301.058 107.726 300.996 107.777 300.944C107.828 300.892 107.889 300.851 107.957 300.823C108.024 300.795 108.097 300.782 108.17 300.783C108.243 300.785 108.315 300.801 108.381 300.832C108.447 300.862 108.507 300.906 108.556 300.96C108.907 301.29 142.381 334.461 144.435 383.261L145.137 397.811C145.141 397.952 145.089 398.089 144.992 398.191C144.896 398.294 144.762 398.354 144.621 398.359H144.586Z" fill="#1A2E35"/>
<path d="M121.527 319.887C121.498 319.891 121.468 319.891 121.439 319.887C121.384 319.876 121.33 319.856 121.281 319.827L121.113 319.757C116.783 317.958 112.132 317.06 107.443 317.118C107.372 317.12 107.302 317.108 107.237 317.083C107.171 317.058 107.111 317.02 107.06 316.971C107.009 316.922 106.969 316.864 106.941 316.799C106.913 316.735 106.899 316.665 106.898 316.595C106.897 316.455 106.95 316.319 107.047 316.218C107.145 316.117 107.278 316.058 107.418 316.054C112.255 315.995 117.054 316.921 121.52 318.778L121.696 318.848L121.787 318.894C121.896 318.948 121.982 319.038 122.033 319.148C122.083 319.259 122.094 319.383 122.064 319.501C122.033 319.618 121.963 319.722 121.866 319.794C121.768 319.866 121.648 319.903 121.527 319.897V319.887Z" fill="#1A2E35"/>
<path d="M126.207 326.116H126.182C126.113 326.11 126.045 326.091 125.983 326.058C125.921 326.026 125.865 325.982 125.82 325.929C125.775 325.875 125.741 325.813 125.72 325.747C125.699 325.68 125.692 325.61 125.698 325.54C126.983 311.267 119.588 299.521 119.514 299.405C119.438 299.286 119.413 299.142 119.443 299.005C119.473 298.867 119.557 298.747 119.676 298.672C119.795 298.596 119.939 298.57 120.076 298.6C120.214 298.631 120.334 298.714 120.41 298.833C120.487 298.952 128.079 310.99 126.758 325.635C126.745 325.77 126.681 325.895 126.578 325.985C126.476 326.074 126.343 326.121 126.207 326.116Z" fill="#1A2E35"/>
<path d="M131.053 334.384C130.921 334.377 130.795 334.321 130.702 334.226C130.65 334.174 125.26 328.857 117.359 330.955C117.292 330.973 117.221 330.978 117.152 330.969C117.083 330.96 117.017 330.937 116.956 330.902C116.896 330.867 116.843 330.821 116.801 330.765C116.758 330.71 116.727 330.647 116.709 330.58C116.691 330.513 116.687 330.442 116.696 330.373C116.705 330.304 116.728 330.238 116.763 330.177C116.798 330.117 116.844 330.064 116.899 330.022C116.955 329.98 117.018 329.949 117.085 329.931C119.584 329.256 122.213 329.228 124.725 329.849C127.237 330.47 129.55 331.719 131.447 333.479C131.496 333.528 131.535 333.586 131.562 333.651C131.589 333.715 131.603 333.784 131.603 333.854C131.603 333.924 131.589 333.993 131.562 334.057C131.535 334.122 131.496 334.18 131.447 334.23C131.396 334.282 131.334 334.322 131.267 334.349C131.199 334.375 131.126 334.387 131.053 334.384Z" fill="#1A2E35"/>
<path d="M137.198 348.012C137.119 348.007 137.043 347.986 136.973 347.952C136.852 347.886 136.762 347.777 136.72 347.646C136.678 347.515 136.688 347.374 136.748 347.25C136.787 347.176 140.439 340.042 139.606 329.748C139.601 329.679 139.609 329.609 139.63 329.542C139.652 329.476 139.686 329.414 139.731 329.361C139.777 329.308 139.832 329.264 139.894 329.232C139.957 329.201 140.025 329.182 140.095 329.176C140.164 329.17 140.235 329.177 140.302 329.198C140.369 329.219 140.431 329.253 140.484 329.299C140.538 329.344 140.581 329.4 140.613 329.463C140.644 329.526 140.662 329.594 140.667 329.664C141.527 340.28 137.858 347.44 137.693 347.741C137.644 347.828 137.571 347.9 137.484 347.947C137.396 347.995 137.297 348.017 137.198 348.012Z" fill="#1A2E35"/>
<path d="M174.511 400.633C174.511 417.598 166.88 431.355 143.761 431.355C121.699 431.355 113.012 417.598 113.012 400.633C113.006 394.474 114.858 388.457 118.325 383.366H169.198C172.665 388.457 174.516 394.474 174.511 400.633Z" fill="#344071"/>
<path opacity="0.7" d="M174.511 400.633C174.511 417.598 166.88 431.355 143.761 431.355C121.699 431.355 113.012 417.598 113.012 400.633C113.006 394.474 114.858 388.457 118.325 383.366H169.198C172.665 388.457 174.516 394.474 174.511 400.633Z" fill="white"/>
<path d="M351.156 416.369L363.049 414.636L360.046 386.83L348.153 388.564L351.156 416.369Z" fill="#F5BFBF"/>
<path d="M372.192 415.053C373.225 414.976 374.201 414.551 374.963 413.85C375.123 413.648 375.231 413.41 375.279 413.157C375.327 412.904 375.312 412.643 375.237 412.397C375.203 412.243 375.131 412.1 375.026 411.982C374.922 411.864 374.789 411.775 374.64 411.723C373.052 411.158 368.702 414.362 368.214 414.72C368.168 414.758 368.134 414.808 368.116 414.865C368.098 414.921 368.097 414.982 368.112 415.039C368.131 415.094 368.167 415.141 368.214 415.175C368.261 415.208 368.317 415.226 368.375 415.225C369.65 415.284 370.928 415.226 372.192 415.053ZM373.867 412.263C374.044 412.216 374.231 412.216 374.408 412.263C374.47 412.282 374.526 412.317 374.57 412.365C374.613 412.414 374.642 412.473 374.654 412.537C374.702 412.699 374.711 412.871 374.68 413.037C374.65 413.204 374.581 413.36 374.478 413.495C373.867 414.257 371.925 414.688 369.211 414.685C370.622 413.606 372.206 412.776 373.895 412.228L373.867 412.263Z" fill="#344071"/>
<path d="M368.442 415.239L368.54 415.194C369.86 414.327 372.238 411.298 371.792 409.989C371.655 409.698 371.406 409.322 370.608 409.368C370.323 409.373 370.041 409.438 369.782 409.559C369.523 409.68 369.293 409.854 369.106 410.07C367.817 411.547 368.073 414.801 368.077 414.934C368.075 414.983 368.085 415.032 368.105 415.077C368.126 415.121 368.157 415.16 368.196 415.19C368.23 415.218 368.27 415.236 368.313 415.245C368.356 415.254 368.4 415.252 368.442 415.239ZM370.443 409.975L370.601 409.901C371.125 409.88 371.188 410.073 371.202 410.14C371.483 410.933 369.906 413.26 368.593 414.352C368.473 412.982 368.791 411.609 369.502 410.431C369.757 410.167 370.101 410.006 370.468 409.982L370.443 409.975Z" fill="#344071"/>
<path d="M361.834 409.712L351.3 412.225C351.071 412.272 350.867 412.403 350.729 412.591C350.591 412.78 350.528 413.013 350.552 413.246L350.903 428.498C350.974 429.012 351.247 429.476 351.66 429.789C352.073 430.102 352.594 430.239 353.108 430.169C353.182 430.159 353.255 430.144 353.326 430.123C357.891 428.986 360.05 428.21 365.862 426.873C369.419 426.052 380.701 425.203 385.318 423.146C389.936 421.09 388.128 416.411 386.021 416.854C379.244 418.31 370.535 415.411 365.591 410.996C364.907 410.666 362.557 409.526 361.834 409.712Z" fill="#1A2E35"/>
<path opacity="0.2" d="M360.046 386.83L361.595 401.163L349.702 402.911L348.143 388.581L360.046 386.83Z" fill="black"/>
<path d="M366.398 395.263L344.396 399.37C344.396 399.37 333.707 384.124 331.692 373.298C329.585 362.022 331.835 323.642 331.692 323.133C325.469 302.132 308.558 247.714 300.394 227.675C295.872 216.574 292.697 209.106 292.697 209.106L294.983 208.594L312.944 201.224L326.035 203.68C326.035 203.68 365.808 284.048 369.98 314.307C373.091 336.922 366.398 395.263 366.398 395.263Z" fill="#344071"/>
<path opacity="0.3" d="M366.398 395.263L344.396 399.37C344.396 399.37 333.707 384.124 331.692 373.298C329.585 362.022 331.835 323.642 331.692 323.133C325.469 302.132 308.558 247.714 300.394 227.675C295.872 216.574 292.697 209.106 292.697 209.106L294.983 208.594L312.944 201.224L326.035 203.68C326.035 203.68 365.808 284.048 369.98 314.307C373.091 336.922 366.398 395.263 366.398 395.263Z" fill="white"/>
<path opacity="0.2" d="M326.509 304.947C320.287 283.946 307.73 252.091 299.566 232.066L294.155 212.984L293.102 209.313L294.994 212.781L316.312 259.969C325.733 278.043 326.653 305.456 326.509 304.947Z" fill="black"/>
<path d="M229.931 409.825L240.532 414.286L251.842 390.028L241.244 385.567L229.931 409.825Z" fill="#F5BFBF"/>
<path d="M247.435 419.363C248.273 419.887 249.263 420.111 250.245 419.998C250.482 419.934 250.701 419.812 250.88 419.644C251.06 419.475 251.196 419.266 251.277 419.033C251.339 418.896 251.364 418.744 251.35 418.594C251.336 418.444 251.283 418.3 251.196 418.177C250.29 416.843 245.121 416.857 244.525 416.861C244.468 416.864 244.414 416.883 244.368 416.916C244.322 416.949 244.286 416.994 244.265 417.047C244.249 417.1 244.25 417.157 244.268 417.209C244.286 417.262 244.319 417.308 244.363 417.342C245.323 418.108 246.351 418.785 247.435 419.363ZM250.304 418.156C250.467 418.224 250.609 418.334 250.715 418.475C250.751 418.525 250.774 418.584 250.78 418.646C250.786 418.708 250.776 418.77 250.75 418.826C250.696 418.979 250.606 419.117 250.488 419.228C250.371 419.34 250.228 419.422 250.073 419.468C249.17 419.711 247.428 418.945 245.339 417.415C247.038 417.38 248.73 417.634 250.343 418.166L250.304 418.156Z" fill="#344071"/>
<path d="M244.426 417.391L244.527 417.412C246.037 417.485 249.587 416.492 249.981 415.229C250.04 414.927 250.061 414.495 249.419 414.081C249.196 413.923 248.942 413.814 248.674 413.761C248.406 413.708 248.13 413.712 247.863 413.772C246.034 414.186 244.39 416.843 244.317 416.931C244.288 416.968 244.268 417.012 244.259 417.058C244.249 417.104 244.251 417.152 244.264 417.198C244.274 417.24 244.294 417.28 244.322 417.314C244.35 417.347 244.385 417.374 244.426 417.391ZM248.952 414.45L249.117 414.481C249.535 414.762 249.468 414.945 249.447 415.004C249.215 415.776 246.683 416.682 245.061 416.759C245.743 415.634 246.765 414.756 247.979 414.25C248.326 414.188 248.683 414.258 248.98 414.446L248.952 414.45Z" fill="#344071"/>
<path d="M242.455 409.407L232.894 405.389C232.692 405.294 232.462 405.278 232.249 405.343C232.036 405.407 231.854 405.549 231.739 405.74L223.374 417.711C223.139 418.147 223.086 418.659 223.227 419.134C223.369 419.609 223.693 420.008 224.129 420.244L224.326 420.336C228.498 422.038 230.597 422.655 235.843 424.898C239.053 426.277 248.242 431.991 252.972 433.012C257.702 434.033 258.963 429.404 257.084 428.555C251.027 425.853 245.942 418.693 244.618 412.492C244.288 411.864 243.123 409.653 242.455 409.407Z" fill="#1A2E35"/>
<path opacity="0.2" d="M252.305 390.315L246.174 402.672L235.679 397.965L241.803 385.602L252.305 390.315Z" fill="black"/>
<path d="M254.515 403.792L233.404 392.562C233.404 392.562 229.355 377.541 233.404 367.957C241.192 349.518 261.46 322.407 261.597 321.895C267.005 300.673 276.489 242.548 279.73 221.172C281.528 209.324 282.585 206.783 282.585 206.783L284.811 207.513L317.116 207.576C317.116 207.576 323.208 256.467 299.857 332.163C294.046 350.995 284.309 366.655 268.293 387.838C262.208 395.833 254.515 403.792 254.515 403.792Z" fill="#344071"/>
<path opacity="0.3" d="M254.515 403.792L233.404 392.562C233.404 392.562 229.355 377.541 233.404 367.957C241.192 349.518 261.46 322.407 261.597 321.895C267.005 300.673 276.489 242.548 279.73 221.172C281.528 209.324 282.585 206.783 282.585 206.783L284.811 207.513L317.116 207.576C317.116 207.576 323.208 256.467 299.857 332.163C294.046 350.995 284.309 366.655 268.293 387.838C262.208 395.833 254.515 403.792 254.515 403.792Z" fill="white"/>
<path d="M345.73 167.603C345.966 163.978 348.371 159.307 350.446 157.148C351.113 156.446 353.631 155.411 355.057 154.481C362.08 149.884 376.125 144.146 376.125 144.146L380.458 147.922C380.458 147.922 371.908 156.18 366.82 160.142C365.823 160.921 364.664 161.865 363.446 162.865C361.233 164.708 350.804 171.576 348.828 173.295L345.73 167.603Z" fill="#F5BFBF"/>
<path d="M388.457 141.984L380.448 147.901L375.953 144.591C377.109 143.137 378.351 141.753 379.672 140.446C380.078 140.051 380.4 139.58 380.621 139.058C380.842 138.537 380.956 137.977 380.957 137.411C380.957 135.656 381.238 133.599 382.196 132.101C382.213 132.067 382.233 132.035 382.256 132.006C383.991 129.391 388.054 130.174 388.875 133.203L390.03 137.47C390.253 138.293 390.222 139.165 389.941 139.97C389.661 140.775 389.144 141.477 388.457 141.984Z" fill="#F5BFBF"/>
<path d="M348.293 169.186L346.186 171.12C345.53 170.593 344.487 169.747 343.17 168.663C332.878 160.121 307.076 139.408 317.361 133.494C326.178 128.427 335.543 143.935 340.213 148.585C342.402 150.923 344.301 153.515 345.87 156.306C348.058 160.272 349.687 165.055 348.293 169.186Z" fill="#1A2E35"/>
<path d="M345.856 154.463C342.189 157.141 339.087 160.516 336.727 164.395C337.593 167.213 339.052 169.813 341.006 172.023C342.96 174.232 345.363 175.998 348.054 177.204C351.041 170.421 352.322 163.01 351.787 155.618C349.937 155.217 347.721 154.866 345.856 154.463Z" fill="#1A2E35"/>
<path d="M289.197 132.287C285.513 133.47 281.299 132.522 278.936 135.582C276.573 138.643 275.864 142.679 275.867 146.543C275.867 151.919 277.1 157.211 278.325 162.444C279.807 168.792 281.29 175.139 282.774 181.487C283.785 185.824 282.721 206 283.803 206.337C283.803 206.337 317.555 205.678 326.017 204.491C326.017 204.491 326.751 183.75 327.422 176.689C327.573 175.12 329.953 168.466 330.231 166.796C331.551 158.917 328.967 153.362 326.235 145.851C326.235 145.851 320.266 133.824 317.34 133.498C312.161 132.912 299.457 128.999 289.197 132.287Z" fill="#1A2E35"/>
<path d="M287.775 142.236C287.655 141.535 281.665 129.441 275.924 137.895C267.953 149.663 267.395 164.445 267.395 164.445C267.395 164.445 262.479 178.809 265.906 181.946C269.333 185.084 273.02 187.102 275.408 185.322C277.795 183.543 279.351 179.992 279.351 179.992C279.351 179.992 289.875 154.548 287.775 142.236Z" fill="#1A2E35"/>
<path d="M287.388 127.798C284.87 129.764 285.2 134.319 287.981 135.898C287.631 137.125 287.635 138.425 287.991 139.65C288.348 140.875 289.043 141.974 289.996 142.821C290.95 143.669 292.123 144.23 293.382 144.441C294.641 144.652 295.933 144.503 297.111 144.012C296.1 145.823 297.237 148.224 298.986 149.34C300.735 150.456 302.891 150.663 304.956 150.94C307.02 151.217 309.169 151.659 310.683 153.102L317.063 143.921C317.892 142.731 318.752 141.464 318.819 140.004C318.885 138.544 317.783 136.955 316.333 137.063C317.158 136.307 317.648 135.253 317.696 134.135C317.744 133.017 317.346 131.925 316.589 131.101C315.832 130.276 314.778 129.786 313.659 129.738C312.54 129.69 311.448 130.088 310.623 130.845C310.921 129.616 310.202 128.314 309.166 127.595C308.13 126.875 306.838 126.63 305.584 126.507L287.388 127.798Z" fill="#1A2E35"/>
<path d="M291.219 112.227C292.88 118.316 294.896 129.542 290.868 133.985C290.868 133.985 302.27 138.548 310.371 147.701C314.142 144.04 313.752 139.927 312.597 136.919C311.701 134.589 309.788 132.859 307.477 131.883C303.039 129.995 303.004 125.633 303.741 121.446L291.219 112.227Z" fill="#F5BFBF"/>
<path opacity="0.2" d="M293.701 122.594L297.894 123.731C299.689 124.219 301.566 124.331 303.407 124.061C303.407 124.963 303.228 126.868 303.796 127.89C301.391 129.051 297.318 128.241 295.517 126.135C294.772 125.307 294.108 123.633 293.701 122.594Z" fill="black"/>
<path d="M283.083 107.039C287.522 116.399 289.2 120.452 296.03 123.436C306.325 127.938 316.824 120.421 315.272 109.924C313.868 100.483 306.845 86.7614 295.921 86.7087C293.511 86.6847 291.134 87.2772 289.017 88.4299C286.901 89.5827 285.114 91.2573 283.828 93.2947C282.541 95.3321 281.797 97.6645 281.667 100.07C281.537 102.476 282.024 104.875 283.083 107.039Z" fill="#F5BFBF"/>
<path d="M287.967 89.1656C284.733 87.6566 280.716 88.8849 278.023 91.2713C275.33 93.6578 273.616 97.0515 272.015 100.329C271.148 102.112 270.259 103.916 269.866 105.857C269.473 107.798 269.582 109.921 270.607 111.619C271.123 112.446 271.829 113.137 272.667 113.636C273.504 114.134 274.448 114.426 275.421 114.487C276.534 114.55 277.837 115.357 278.199 116.41C278.532 117.389 278.371 118.452 278.199 119.47C278.027 120.488 277.9 121.485 278.199 122.429C278.711 124.004 280.4 124.962 282.061 125.12C283.722 125.278 285.348 124.805 286.938 124.331C287.416 124.171 287.927 124.14 288.421 124.241C288.914 124.342 289.372 124.572 289.748 124.906C289.942 125.082 290.104 125.291 290.225 125.524C290.72 126.461 292.149 126.314 292.564 125.338C294.007 121.906 291.904 116.42 288.771 112.234C287.111 110.012 287.202 110.577 286.549 107.882C286.004 105.636 286.826 103.295 287.834 101.214C289.175 98.4412 290.899 95.7389 290.366 92.44C290.262 91.7408 289.989 91.0773 289.571 90.5069C289.153 89.9364 288.603 89.4761 287.967 89.1656Z" fill="#1A2E35"/>
<path d="M283.364 116.617C284.836 118.184 286.871 119.103 289.021 119.172C291.872 119.235 292.595 116.515 291.219 114.195C289.976 112.107 287.005 109.563 284.414 110.573C281.822 111.584 281.566 114.665 283.364 116.617Z" fill="#F5BFBF"/>
<path d="M300.928 105.376C301.258 106.193 301.911 106.629 302.424 106.428C302.936 106.228 303.066 105.439 302.775 104.642C302.483 103.845 301.795 103.4 301.279 103.589C300.763 103.779 300.608 104.597 300.928 105.376Z" fill="#1A2E35"/>
<path d="M309.668 101.624C309.988 102.449 310.648 102.88 311.157 102.677C311.666 102.473 311.8 101.687 311.508 100.894C311.217 100.101 310.529 99.6482 310.019 99.8412C309.51 100.034 309.349 100.838 309.668 101.624Z" fill="#1A2E35"/>
<path d="M309.798 99.9718L311.459 98.6768C311.459 98.6768 311.101 100.523 309.798 99.9718Z" fill="#1A2E35"/>
<path d="M307.396 103.379C309.426 105.379 310.954 105.748 313.152 107.12C313.133 107.671 312.939 108.201 312.597 108.633C312.255 109.065 311.784 109.376 311.252 109.521L307.396 103.379Z" fill="#FF847F"/>
<path d="M310.325 113.329C310.704 113.188 311.071 113.016 311.421 112.813C311.448 112.798 311.472 112.778 311.491 112.754C311.511 112.73 311.525 112.702 311.534 112.673C311.543 112.643 311.546 112.612 311.543 112.581C311.539 112.55 311.53 112.521 311.515 112.493C311.481 112.434 311.426 112.391 311.36 112.372C311.295 112.353 311.225 112.36 311.164 112.392C310.251 112.92 309.226 113.225 308.172 113.28C307.119 113.336 306.067 113.141 305.104 112.711C305.074 112.694 305.041 112.683 305.007 112.679C304.973 112.675 304.938 112.679 304.905 112.688C304.872 112.698 304.842 112.715 304.816 112.737C304.789 112.759 304.768 112.786 304.752 112.816C304.735 112.846 304.723 112.878 304.719 112.912C304.714 112.947 304.717 112.981 304.727 113.014C304.736 113.047 304.752 113.078 304.774 113.104C304.796 113.13 304.824 113.152 304.854 113.167C305.709 113.557 306.634 113.773 307.573 113.8C308.513 113.828 309.448 113.668 310.325 113.329Z" fill="#1A2E35"/>
<path d="M300.609 98.8759C300.604 98.9852 300.564 99.09 300.495 99.1752C300.426 99.2604 300.332 99.3215 300.226 99.3497C297.937 100.03 296.922 102.933 296.918 102.957C296.875 103.087 296.782 103.195 296.659 103.256C296.537 103.317 296.395 103.327 296.265 103.284C296.135 103.24 296.028 103.147 295.967 103.025C295.905 102.903 295.895 102.761 295.939 102.631C296.026 102.522 297.136 99.1882 299.928 98.3565C300.059 98.3194 300.199 98.3354 300.319 98.4011C300.439 98.4668 300.528 98.5768 300.567 98.7074C300.595 98.7591 300.609 98.8171 300.609 98.8759Z" fill="#1A2E35"/>
<path d="M311.168 97.4728C311.075 97.529 310.966 97.5551 310.858 97.5476C310.749 97.54 310.645 97.4992 310.56 97.4306C308.696 95.9356 305.729 96.7568 305.708 96.7639C305.642 96.7864 305.572 96.7954 305.502 96.7902C305.432 96.785 305.365 96.7657 305.303 96.7335C305.241 96.7014 305.186 96.657 305.142 96.6031C305.097 96.5491 305.064 96.4868 305.045 96.4198C305.025 96.3528 305.02 96.2825 305.028 96.2132C305.037 96.144 305.059 96.0772 305.094 96.0168C305.129 95.9565 305.176 95.9039 305.232 95.8622C305.288 95.8204 305.352 95.7905 305.42 95.7742C305.56 95.7742 308.931 94.7985 311.207 96.6164C311.311 96.7029 311.378 96.8267 311.393 96.9616C311.408 97.0965 311.37 97.232 311.287 97.3394C311.257 97.3916 311.217 97.4371 311.168 97.4728Z" fill="#1A2E35"/>
<path d="M301.075 103.73L302.736 102.442C302.736 102.442 302.364 104.281 301.075 103.73Z" fill="#1A2E35"/>
<path d="M288.67 87.5867C287.363 87.7025 286.1 88.1128 284.975 88.7869C283.85 89.4611 282.892 90.3814 282.174 91.4788C281.226 92.9563 280.889 95.1988 282.293 96.2517C282.95 96.7465 283.817 96.8343 284.636 96.908C288.27 97.2238 292.75 94.4197 292.75 94.4197C291.346 88.4887 303.797 83.8912 309.935 93.0861C311.74 95.7849 311.252 97.7467 314.251 98.9926C315.655 99.5787 317.52 99.4172 318.426 100.649C319.922 102.709 317.042 106.187 318.868 107.942C320.122 109.142 322.959 108.686 323.135 110.398C323.219 111.209 322.685 112.381 323.468 112.62C323.9 112.75 324.297 112.357 324.578 112.002C325.252 111.146 325.944 110.248 326.179 109.195C326.414 108.142 326.028 106.847 325.038 106.387C324.276 106.036 322.257 106.426 322.394 107.254C322.559 108.247 321.692 103.369 322.088 101.526C322.439 99.9191 323.953 98.5293 323.493 96.9641C322.998 95.2866 321.003 94.6163 319.279 94.3601C317.555 94.1039 315.582 93.8933 314.518 92.5035C313.331 90.9523 313.872 88.7379 313.489 86.8217C313.004 84.3826 310.971 82.4839 308.689 81.4978C301.761 78.4831 291.054 78.9078 288.67 87.5867Z" fill="#1A2E35"/>
<path d="M308.334 119.442L284.456 131.431C280.669 133.332 277.729 136.578 276.214 140.534C274.698 144.489 274.716 148.868 276.264 152.811L287.778 182.161C289.326 186.105 292.291 189.33 296.093 191.204C299.895 193.078 304.26 193.466 308.334 192.292L334.009 184.894C336.282 184.24 338.393 183.118 340.207 181.601C342.021 180.084 343.498 178.206 344.544 176.086C345.59 173.966 346.182 171.651 346.281 169.289C346.381 166.928 345.987 164.571 345.123 162.371L331.811 128.434C330.947 126.233 329.633 124.236 327.954 122.57C326.274 120.905 324.266 119.608 322.057 118.762C319.848 117.916 317.486 117.539 315.124 117.657C312.761 117.774 310.448 118.382 308.334 119.442ZM304.387 169.846C302.481 170.593 300.395 170.758 298.395 170.321C296.395 169.883 294.569 168.863 293.149 167.388C291.729 165.914 290.779 164.051 290.418 162.037C290.057 160.022 290.303 157.946 291.123 156.071C291.943 154.195 293.301 152.605 295.025 151.502C296.749 150.398 298.762 149.83 300.809 149.87C302.857 149.91 304.846 150.555 306.526 151.726C308.206 152.896 309.501 154.537 310.248 156.443C311.246 158.997 311.189 161.843 310.091 164.356C308.992 166.869 306.941 168.843 304.387 169.846Z" fill="#344071"/>
<path d="M308.334 119.442L284.456 131.431C280.669 133.332 277.729 136.578 276.214 140.534C274.698 144.489 274.716 148.868 276.264 152.811L287.778 182.161C289.326 186.105 292.291 189.33 296.093 191.204C299.895 193.078 304.26 193.466 308.334 192.292L334.009 184.894C336.282 184.24 338.393 183.118 340.207 181.601C342.021 180.084 343.498 178.206 344.544 176.086C345.59 173.966 346.182 171.651 346.281 169.289C346.381 166.928 345.987 164.571 345.123 162.371L331.811 128.434C330.947 126.233 329.633 124.236 327.954 122.57C326.274 120.905 324.266 119.608 322.057 118.762C319.848 117.916 317.486 117.539 315.124 117.657C312.761 117.774 310.448 118.382 308.334 119.442ZM304.387 169.846C302.481 170.593 300.395 170.758 298.395 170.321C296.395 169.883 294.569 168.863 293.149 167.388C291.729 165.914 290.779 164.051 290.418 162.037C290.057 160.022 290.303 157.946 291.123 156.071C291.943 154.195 293.301 152.605 295.025 151.502C296.749 150.398 298.762 149.83 300.809 149.87C302.857 149.91 304.846 150.555 306.526 151.726C308.206 152.896 309.501 154.537 310.248 156.443C311.246 158.997 311.189 161.843 310.091 164.356C308.992 166.869 306.941 168.843 304.387 169.846Z" fill="#344071"/>
<path opacity="0.1" d="M345.13 162.374L331.812 128.437C330.949 126.234 329.637 124.236 327.957 122.569C326.278 120.903 324.27 119.605 322.06 118.758C319.851 117.912 317.488 117.535 315.125 117.653C312.762 117.771 310.449 118.38 308.334 119.442L301.399 122.927L296.747 125.261L284.457 131.43C280.668 133.331 277.727 136.578 276.209 140.533C274.691 144.489 274.706 148.869 276.25 152.814L287.764 182.16C289.315 186.106 292.283 189.331 296.087 191.206C299.891 193.08 304.258 193.469 308.334 192.296L334.013 184.894C336.047 184.307 337.953 183.344 339.631 182.055C340.884 181.104 341.995 179.979 342.929 178.714C344.657 176.403 345.766 173.689 346.151 170.829C346.536 167.97 346.185 165.059 345.13 162.374ZM304.398 169.845C302.492 170.59 300.408 170.753 298.409 170.314C296.411 169.875 294.587 168.854 293.17 167.379C291.752 165.904 290.803 164.043 290.443 162.029C290.084 160.016 290.33 157.941 291.15 156.068C291.97 154.194 293.328 152.605 295.051 151.502C296.774 150.4 298.786 149.832 300.832 149.872C302.878 149.912 304.866 150.557 306.545 151.726C308.224 152.895 309.519 154.535 310.265 156.439C310.76 157.705 311.001 159.057 310.973 160.416C310.945 161.775 310.649 163.115 310.103 164.36C309.557 165.605 308.771 166.73 307.79 167.671C306.808 168.612 305.651 169.351 304.384 169.845H304.398Z" fill="white"/>
<path d="M308.579 121.677L286.19 132.908C282.638 134.69 279.88 137.735 278.459 141.446C277.037 145.156 277.055 149.263 278.508 152.961L289.305 180.486C290.757 184.185 293.537 187.21 297.103 188.968C300.669 190.726 304.762 191.09 308.583 189.99L332.664 183.044C334.794 182.431 336.773 181.38 338.475 179.959C340.176 178.538 341.561 176.778 342.543 174.791C343.525 172.805 344.081 170.635 344.177 168.421C344.272 166.208 343.904 163.998 343.096 161.935L330.61 130.107C329.799 128.041 328.567 126.167 326.991 124.605C325.414 123.042 323.529 121.825 321.456 121.032C319.383 120.239 317.167 119.886 314.95 119.998C312.732 120.109 310.563 120.681 308.579 121.677ZM290.97 163.984C290.223 162.079 290.059 159.995 290.497 157.997C290.936 155.998 291.957 154.174 293.433 152.756C294.908 151.338 296.771 150.388 298.787 150.028C300.802 149.668 302.879 149.913 304.754 150.733C306.63 151.552 308.221 152.909 309.325 154.632C310.43 156.355 310.998 158.366 310.959 160.412C310.919 162.457 310.274 164.445 309.104 166.124C307.934 167.804 306.293 169.098 304.387 169.845C303.121 170.342 301.769 170.585 300.409 170.559C299.05 170.533 297.708 170.24 296.462 169.695C295.216 169.151 294.089 168.366 293.147 167.386C292.204 166.406 291.464 165.25 290.97 163.984Z" fill="#344071"/>
<path opacity="0.1" d="M308.579 121.677L286.19 132.908C282.638 134.69 279.88 137.735 278.459 141.446C277.037 145.156 277.055 149.263 278.508 152.961L289.305 180.486C290.757 184.185 293.537 187.21 297.103 188.968C300.669 190.726 304.762 191.09 308.583 189.99L332.664 183.044C334.794 182.431 336.773 181.38 338.475 179.959C340.176 178.538 341.561 176.778 342.543 174.791C343.525 172.805 344.081 170.635 344.177 168.421C344.272 166.208 343.904 163.998 343.096 161.935L330.61 130.107C329.799 128.041 328.567 126.167 326.991 124.605C325.414 123.042 323.529 121.825 321.456 121.032C319.383 120.239 317.167 119.886 314.95 119.998C312.732 120.109 310.563 120.681 308.579 121.677ZM290.97 163.984C290.223 162.079 290.059 159.995 290.497 157.997C290.936 155.998 291.957 154.174 293.433 152.756C294.908 151.338 296.771 150.388 298.787 150.028C300.802 149.668 302.879 149.913 304.754 150.733C306.63 151.552 308.221 152.909 309.325 154.632C310.43 156.355 310.998 158.366 310.959 160.412C310.919 162.457 310.274 164.445 309.104 166.124C307.934 167.804 306.293 169.098 304.387 169.845C303.121 170.342 301.769 170.585 300.409 170.559C299.05 170.533 297.708 170.24 296.462 169.695C295.216 169.151 294.089 168.366 293.147 167.386C292.204 166.406 291.464 165.25 290.97 163.984Z" fill="#344071"/>
<path d="M419.832 111.062L419.151 112.311L418.771 113.013L417.69 114.985L418.143 120.035C418.161 120.246 418.137 120.458 418.073 120.66C418 120.881 417.879 121.082 417.72 121.251C417.56 121.42 417.365 121.551 417.149 121.636L407.707 125.321C407.491 125.406 407.259 125.443 407.028 125.427C406.796 125.411 406.571 125.344 406.369 125.229C406.239 125.158 406.121 125.066 406.018 124.959L400.684 119.523L393.096 122.492L394.195 125.3L386.61 128.269L388.419 132.884L382.836 135.07C382.612 135.157 382.373 135.195 382.134 135.182C381.895 135.17 381.661 135.106 381.449 134.996C381.307 134.926 381.177 134.834 381.062 134.726L377.842 131.697L370.258 134.667L372.066 139.281L364.092 142.401L365.907 147.034C365.978 147.214 366.013 147.406 366.01 147.6C366.006 147.793 365.965 147.984 365.887 148.161C365.81 148.338 365.699 148.499 365.559 148.633C365.42 148.767 365.255 148.873 365.075 148.943L343.227 157.489L333.746 133.326L412.774 102.407L414.01 103.042L418.017 105.099C418.532 105.366 418.99 105.734 419.361 106.18C419.733 106.626 420.012 107.143 420.181 107.698C420.35 108.254 420.406 108.838 420.346 109.415C420.286 109.993 420.111 110.553 419.832 111.062Z" fill="#344071"/>
<g opacity="0.1">
<path d="M419.832 111.062L419.151 112.311L418.771 113.013L417.69 114.985L418.143 120.035C418.161 120.246 418.137 120.458 418.073 120.66C418 120.881 417.879 121.082 417.72 121.251C417.56 121.42 417.365 121.551 417.149 121.636L407.707 125.321C407.491 125.406 407.259 125.443 407.028 125.427C406.796 125.411 406.571 125.344 406.369 125.229C406.239 125.158 406.121 125.066 406.018 124.959L400.684 119.523L393.096 122.492L394.195 125.3L386.61 128.269L388.419 132.884L382.836 135.07C382.612 135.157 382.373 135.195 382.134 135.182C381.895 135.17 381.661 135.106 381.449 134.996C381.307 134.926 381.177 134.834 381.062 134.726L377.842 131.697L370.258 134.667L372.066 139.281L364.092 142.401L365.907 147.034C365.978 147.214 366.013 147.406 366.01 147.6C366.006 147.793 365.965 147.984 365.887 148.161C365.81 148.338 365.699 148.499 365.559 148.633C365.42 148.767 365.255 148.873 365.075 148.943L343.227 157.489L333.746 133.326L412.774 102.407L414.01 103.042L418.017 105.099C418.532 105.366 418.99 105.734 419.361 106.18C419.733 106.626 420.012 107.143 420.181 107.698C420.35 108.254 420.406 108.838 420.346 109.415C420.286 109.993 420.111 110.553 419.832 111.062Z" fill="white"/>
</g>
<path d="M419.523 108.314L335.02 141.366L332.562 135.165L413.118 103.649L417.124 105.706C418.659 106.489 419.537 107.215 419.523 108.314Z" fill="#344071"/>
<path opacity="0.1" d="M419.523 108.314L335.02 141.366L332.562 135.165L413.118 103.649L417.124 105.706C418.659 106.489 419.537 107.215 419.523 108.314Z" fill="black"/>
<path d="M417.855 112.967L417.037 114.803C417.028 114.834 417.028 114.867 417.037 114.898L417.493 119.899C417.509 120.078 417.495 120.258 417.451 120.432C417.444 120.461 417.429 120.488 417.409 120.51C417.389 120.532 417.363 120.549 417.335 120.559L407.075 124.594C407.049 124.608 407.02 124.615 406.991 124.615C406.961 124.615 406.932 124.608 406.906 124.594C406.805 124.531 406.712 124.455 406.629 124.37L400.747 118.47C400.721 118.443 400.687 118.425 400.651 118.417C400.614 118.408 400.575 118.411 400.54 118.425L392.211 121.703C392.187 121.712 392.166 121.725 392.147 121.743C392.129 121.76 392.114 121.781 392.104 121.804C392.094 121.827 392.088 121.852 392.088 121.878C392.088 121.903 392.093 121.928 392.102 121.952L393.092 124.465C393.111 124.512 393.11 124.565 393.089 124.612C393.069 124.658 393.031 124.695 392.984 124.714L385.88 127.521C385.833 127.54 385.795 127.577 385.774 127.624C385.754 127.67 385.753 127.723 385.771 127.771L387.481 132.108C387.491 132.132 387.496 132.156 387.496 132.182C387.496 132.207 387.491 132.232 387.481 132.255C387.471 132.278 387.457 132.299 387.439 132.317C387.421 132.334 387.399 132.348 387.376 132.357L382.161 134.407C382.136 134.419 382.109 134.425 382.081 134.425C382.053 134.425 382.025 134.419 382 134.407C381.89 134.342 381.787 134.266 381.694 134.179L377.884 130.669C377.857 130.645 377.824 130.628 377.788 130.621C377.752 130.614 377.715 130.618 377.681 130.631L369.408 133.888C369.361 133.906 369.322 133.943 369.302 133.99C369.282 134.036 369.281 134.089 369.299 134.137L371.055 138.58C371.073 138.627 371.072 138.68 371.052 138.727C371.031 138.773 370.993 138.81 370.946 138.829L339.178 151.323C339.155 151.332 339.13 151.337 339.105 151.337C339.08 151.337 339.055 151.332 339.031 151.322C339.008 151.313 338.987 151.298 338.97 151.28C338.952 151.262 338.938 151.241 338.929 151.217L335.769 143.261C335.759 143.238 335.754 143.213 335.754 143.188C335.754 143.163 335.759 143.138 335.769 143.115C335.779 143.092 335.793 143.071 335.811 143.053C335.829 143.035 335.85 143.022 335.874 143.012L418.662 110.448C418.698 110.434 418.737 110.431 418.775 110.439C418.812 110.448 418.846 110.467 418.873 110.495C418.899 110.523 418.917 110.558 418.923 110.596C418.929 110.634 418.924 110.672 418.908 110.707L417.855 112.967Z" fill="#344071"/>
<path opacity="0.1" d="M417.855 112.967L417.037 114.803C417.028 114.834 417.028 114.867 417.037 114.898L417.493 119.899C417.509 120.078 417.495 120.258 417.451 120.432C417.444 120.461 417.429 120.488 417.409 120.51C417.389 120.532 417.363 120.549 417.335 120.559L407.075 124.594C407.049 124.608 407.02 124.615 406.991 124.615C406.961 124.615 406.932 124.608 406.906 124.594C406.805 124.531 406.712 124.455 406.629 124.37L400.747 118.47C400.721 118.443 400.687 118.425 400.651 118.417C400.614 118.408 400.575 118.411 400.54 118.425L392.211 121.703C392.187 121.712 392.166 121.725 392.147 121.743C392.129 121.76 392.114 121.781 392.104 121.804C392.094 121.827 392.088 121.852 392.088 121.878C392.088 121.903 392.093 121.928 392.102 121.952L393.092 124.465C393.111 124.512 393.11 124.565 393.089 124.612C393.069 124.658 393.031 124.695 392.984 124.714L385.88 127.521C385.833 127.54 385.795 127.577 385.774 127.624C385.754 127.67 385.753 127.723 385.771 127.771L387.481 132.108C387.491 132.132 387.496 132.156 387.496 132.182C387.496 132.207 387.491 132.232 387.481 132.255C387.471 132.278 387.457 132.299 387.439 132.317C387.421 132.334 387.399 132.348 387.376 132.357L382.161 134.407C382.136 134.419 382.109 134.425 382.081 134.425C382.053 134.425 382.025 134.419 382 134.407C381.89 134.342 381.787 134.266 381.694 134.179L377.884 130.669C377.857 130.645 377.824 130.628 377.788 130.621C377.752 130.614 377.715 130.618 377.681 130.631L369.408 133.888C369.361 133.906 369.322 133.943 369.302 133.99C369.282 134.036 369.281 134.089 369.299 134.137L371.055 138.58C371.073 138.627 371.072 138.68 371.052 138.727C371.031 138.773 370.993 138.81 370.946 138.829L339.178 151.323C339.155 151.332 339.13 151.337 339.105 151.337C339.08 151.337 339.055 151.332 339.031 151.322C339.008 151.313 338.987 151.298 338.97 151.28C338.952 151.262 338.938 151.241 338.929 151.217L335.769 143.261C335.759 143.238 335.754 143.213 335.754 143.188C335.754 143.163 335.759 143.138 335.769 143.115C335.779 143.092 335.793 143.071 335.811 143.053C335.829 143.035 335.85 143.022 335.874 143.012L418.662 110.448C418.698 110.434 418.737 110.431 418.775 110.439C418.812 110.448 418.846 110.467 418.873 110.495C418.899 110.523 418.917 110.558 418.923 110.596C418.929 110.634 418.924 110.672 418.908 110.707L417.855 112.967Z" fill="black"/>
<path opacity="0.3" d="M296.198 148.002C293.805 148.937 291.743 150.56 290.272 152.666C288.802 154.772 287.989 157.266 287.937 159.834C287.885 162.402 288.596 164.927 289.98 167.091C291.364 169.254 293.359 170.959 295.713 171.99C298.066 173.021 300.673 173.331 303.203 172.881C305.733 172.431 308.072 171.241 309.926 169.463C311.779 167.684 313.063 165.396 313.615 162.888C314.168 160.379 313.963 157.764 313.028 155.372C312.408 153.783 311.48 152.333 310.298 151.103C309.116 149.873 307.704 148.887 306.141 148.203C304.578 147.518 302.895 147.148 301.19 147.114C299.484 147.08 297.788 147.381 296.198 148.002ZM304.387 169.845C302.481 170.592 300.395 170.757 298.395 170.32C296.395 169.882 294.569 168.862 293.149 167.387C291.729 165.913 290.779 164.05 290.418 162.036C290.057 160.021 290.302 157.945 291.122 156.07C291.942 154.195 293.3 152.605 295.025 151.501C296.749 150.397 298.762 149.829 300.809 149.869C302.857 149.909 304.846 150.555 306.526 151.725C308.206 152.895 309.501 154.536 310.247 156.442C311.246 158.996 311.189 161.842 310.091 164.355C308.992 166.868 306.941 168.842 304.387 169.845Z" fill="white"/>
<path opacity="0.1" d="M342.932 178.7C341.998 179.966 340.888 181.093 339.634 182.044L296.746 125.246L296.711 125.201C296.711 125.201 300.489 123.299 301.346 122.744C301.353 122.806 301.374 122.866 301.406 122.92C303.274 126.938 336.994 170.687 342.932 178.7Z" fill="white"/>
<path opacity="0.1" d="M336.738 183.837C336.467 183.967 323.967 187.768 323.967 187.768L310.037 169.329C312.161 167.23 313.497 164.463 313.818 161.495C314.14 158.527 313.429 155.538 311.804 153.033C310.179 150.528 307.74 148.658 304.898 147.74C302.055 146.822 298.983 146.911 296.198 147.991C295.622 148.213 295.065 148.479 294.531 148.788L282.209 132.472C282.209 132.472 293.042 127.314 294.239 126.562C294.555 128.847 336.738 183.357 336.738 183.837Z" fill="white"/>
<path d="M285.59 94.2543C284.889 95.0889 284.391 96.0736 284.132 97.132C283.874 98.1904 283.864 99.294 284.101 100.357C284.339 101.42 284.819 102.414 285.503 103.262C286.188 104.11 287.058 104.789 288.048 105.246C289.066 105.72 290.19 105.948 291.208 106.443C292.226 106.938 293.154 107.811 293.259 108.931C293.378 110.166 292.465 111.321 292.557 112.556C292.634 113.69 293.522 114.592 294.418 115.29C295.313 115.989 296.314 116.652 296.809 117.677C297.304 118.701 296.981 120.218 295.882 120.516C295.65 120.867 295.562 121.716 295.857 122.018C296.008 122.167 296.205 122.262 296.416 122.288C296.627 122.314 296.84 122.27 297.023 122.162C297.872 121.634 298.578 120.904 299.076 120.038C299.575 119.171 299.852 118.195 299.881 117.196C299.872 116.204 299.582 115.235 299.045 114.4C298.508 113.566 297.747 112.9 296.848 112.479C296.521 111.823 296.774 110.988 297.044 110.307C297.592 108.94 298.139 107.574 298.684 106.208C298.772 105.875 298.786 105.528 298.725 105.19C298.664 104.851 298.531 104.53 298.333 104.249C297.93 103.832 297.432 103.517 296.883 103.33L293.371 101.821C292.044 101.252 288.104 95.9704 292.781 94.4298C292.17 93.0716 291.113 92.6469 289.649 92.3802C288.185 92.1135 286.563 93.1207 285.59 94.2543Z" fill="#1A2E35"/>
<path d="M291.978 88.5793L291.627 92.7451C292.793 90.8289 294.952 87.1299 294.879 87.2633C293.966 87.7616 292.884 88.081 291.978 88.5793Z" fill="#1A2E35"/>
<path d="M293.558 90.8607L298.449 86.3405C297.814 86.1144 297.128 86.0746 296.472 86.2257C295.816 86.3769 295.216 86.7126 294.744 87.1933C294.769 87.0915 294.014 89.4078 293.558 90.8607Z" fill="#1A2E35"/>
<path d="M283.617 203.751C277.247 211.647 279.364 217.705 270.575 231.687C281.661 239.899 293.814 241.261 308.923 240.088C310.711 236.93 311.613 233.627 313.397 230.465C315.957 233.624 318.014 236.309 320.574 239.485C328.492 238.246 337.896 236.021 344.157 231.992C338.63 225.654 335.196 217.74 331.656 210.753C329.995 207.475 330.691 206.095 326.287 201.8C312.242 202.446 298.35 202.789 284.322 203.435C284.691 203.467 283.244 203.751 283.617 203.751Z" fill="#1A2E35"/>
<path d="M285.358 202.442L284.481 206.127C284.354 206.418 284.695 206.692 285.183 206.664L323.847 204.955C324.198 204.955 324.514 204.741 324.528 204.516L324.732 200.852C324.732 200.606 324.416 200.399 324.012 200.427L286.019 202.101C285.888 202.094 285.758 202.122 285.642 202.181C285.526 202.241 285.428 202.331 285.358 202.442Z" fill="#344071"/>
<path d="M285.358 202.442L284.481 206.127C284.354 206.418 284.695 206.692 285.183 206.664L323.847 204.955C324.198 204.955 324.514 204.741 324.528 204.516L324.732 200.852C324.732 200.606 324.416 200.399 324.012 200.427L286.019 202.101C285.888 202.094 285.758 202.122 285.642 202.181C285.526 202.241 285.428 202.331 285.358 202.442Z" fill="#344071"/>
<path d="M293.877 206.67L292.754 206.719C292.539 206.719 292.364 206.621 292.374 206.488L292.676 201.725C292.676 201.592 292.873 201.473 293.098 201.466L294.221 201.402C294.432 201.402 294.611 201.501 294.597 201.644L294.295 206.396C294.288 206.53 294.092 206.663 293.877 206.67Z" fill="#1A2E35"/>
<path d="M321.793 205.467L320.669 205.516C320.459 205.516 320.28 205.421 320.294 205.288L320.596 200.536C320.596 200.388 320.789 200.269 321.003 200.262L322.127 200.213C322.337 200.213 322.516 200.308 322.502 200.445L322.2 205.193C322.2 205.34 322.028 205.46 321.793 205.467Z" fill="#1A2E35"/>
<path d="M298.87 183.498C298.94 183.849 301.946 188.621 304.299 188.292H304.358C304.695 188.243 305.038 188.285 305.353 188.413C305.668 188.542 305.943 188.752 306.149 189.022C307.094 190.253 307.666 190.955 308.305 191.766C308.809 192.401 309.513 192.848 310.302 193.034C311.091 193.221 311.921 193.136 312.656 192.794C313.105 192.584 313.551 192.356 313.99 192.12C314.699 191.745 315.262 191.142 315.59 190.41C315.917 189.677 315.989 188.856 315.795 188.078C315.362 186.318 314.686 184.628 313.787 183.055C313.52 182.491 313.11 182.007 312.596 181.652C312.059 181.343 306.88 179.778 304.871 179.841C302.775 179.914 300.787 182.655 298.87 183.498Z" fill="#F5BFBF"/>
<path d="M304.921 179.69C304.921 179.69 273.181 170.084 266.334 176.482C262.31 180.241 264.21 183.792 266.46 186.081C268.135 187.783 271.78 187.365 274.185 187.253L299.187 184.796L304.921 179.69Z" fill="#F5BFBF"/>
<path d="M286.682 175.302C286.51 173.586 285.183 172.144 283.638 171.389C282.093 170.635 280.341 170.392 278.627 170.175L266.664 168.655C264.638 171.214 263.184 174.73 263.247 177.994C263.321 181.287 264.526 184.454 266.66 186.964C268.567 183.276 271.085 179.479 274.81 177.647C278.536 175.815 282.595 174.562 286.682 175.302Z" fill="#1A2E35"/>
<path opacity="0.1" d="M278.487 117.361C278.452 117.291 278.452 117.256 278.487 117.242C278.751 117.171 278.716 117.221 278.487 117.361Z" fill="white"/>
<path d="M357.35 66.0062L366.195 82.392L402.275 51.7893C402.345 51.7367 402.392 51.6583 402.404 51.5714C402.417 51.4846 402.394 51.3963 402.341 51.326C402.289 51.2557 402.21 51.2092 402.123 51.1967C402.037 51.1842 401.948 51.2067 401.878 51.2593L368.052 73.5481L362.841 63.3706L357.35 66.0062Z" fill="#344071"/>
<path d="M414.276 66.0841C414.276 80.6871 398.938 92.5211 380.019 92.5211C372.754 92.5211 366.029 90.7874 360.488 87.7938L340.375 96.5324L353.072 82.3997C348.507 77.9181 345.761 72.2538 345.761 66.0841C345.761 51.4776 361.099 39.6436 380.019 39.6436C398.938 39.6436 414.276 51.4776 414.276 66.0841Z" stroke="#344071" stroke-width="0.513777" stroke-miterlimit="10"/>
</g>
<defs>
<clipPath id="clip0_528_232">
<rect width="597" height="444" fill="white"/>
</clipPath>
</defs>
</svg>
