<svg width="35" height="35" viewBox="0 0 35 35" fill="none" xmlns="http://www.w3.org/2000/svg">
<circle cx="17.1575" cy="17.1575" r="17.1575" fill="#E9EAFA"/>
<path d="M17.2474 9.07764C12.7423 9.07764 9.07715 12.7428 9.07715 17.2479C9.07715 21.7529 12.7423 25.4181 17.2474 25.4181C21.7525 25.4181 25.4176 21.7529 25.4176 17.2479C25.4176 12.7428 21.7525 9.07764 17.2474 9.07764ZM17.2474 23.7841C13.6435 23.7841 10.7112 20.8518 10.7112 17.2479C10.7112 13.644 13.6435 10.7117 17.2474 10.7117C20.8513 10.7117 23.7836 13.644 23.7836 17.2479C23.7836 20.8518 20.8513 23.7841 17.2474 23.7841Z" fill="#1214B1"/>
<path d="M18.0637 13.1626H16.4297V17.586L19.1201 20.2764L20.2754 19.1212L18.0637 16.9095V13.1626Z" fill="#1214B1"/>
</svg>
